<?xml version="1.0" encoding="utf-8"?>
<!-- Generator: Adobe Illustrator 15.0.0, SVG Export Plug-In . SVG Version: 6.00 Build 0)  -->
<!DOCTYPE svg PUBLIC "-//W3C//DTD SVG 1.1//EN" "http://www.w3.org/Graphics/SVG/1.1/DTD/svg11.dtd">
<svg version="1.1" id="Layer_1" xmlns="http://www.w3.org/2000/svg" xmlns:xlink="http://www.w3.org/1999/xlink" x="0px" y="0px"
	 width="595.28px" height="841.89px" viewBox="0 0 595.28 841.89" enable-background="new 0 0 595.28 841.89" xml:space="preserve">
<g>
	<linearGradient id="SVGID_1_" gradientUnits="userSpaceOnUse" x1="274.3306" y1="402.1558" x2="310.2715" y2="449.6469">
		<stop  offset="0" style="stop-color:#AB0F14"/>
		<stop  offset="1" style="stop-color:#DD5326"/>
	</linearGradient>
	<circle fill="url(#SVGID_1_)" cx="298.586" cy="434.207" r="25.669"/>
	<linearGradient id="SVGID_2_" gradientUnits="userSpaceOnUse" x1="254.4839" y1="394.5415" x2="326.7958" y2="461.8855">
		<stop  offset="0" style="stop-color:#AB0F14"/>
		<stop  offset="1" style="stop-color:#FAB798"/>
	</linearGradient>
	<ellipse fill="url(#SVGID_2_)" cx="299" cy="436" rx="13.938" ry="15.042"/>
	<g>
		<g>
			
				<linearGradient id="SVGID_3_" gradientUnits="userSpaceOnUse" x1="177.8779" y1="500.3164" x2="160.0165" y2="483.2492" gradientTransform="matrix(0.926 -0.3776 0.3776 0.926 -63.4412 62.0183)">
				<stop  offset="0" style="stop-color:#AB0F14"/>
				<stop  offset="1" style="stop-color:#DD5326"/>
			</linearGradient>
			<path fill="url(#SVGID_3_)" d="M291.861,453.013c2.863,15.81-9.36,21.925-20.284,8.271c0,0-9.013-11.119,4.45-18.092l0,0
				C289.125,436.271,291.861,453.013,291.861,453.013z"/>
			
				<linearGradient id="SVGID_4_" gradientUnits="userSpaceOnUse" x1="262.522" y1="455.6709" x2="274.598" y2="465.5002" gradientTransform="matrix(0.9985 -0.0553 0.0553 0.9985 -12.4291 11.7424)">
				<stop  offset="0" style="stop-color:#AB0F14"/>
				<stop  offset="1" style="stop-color:#780000"/>
			</linearGradient>
			<path fill="url(#SVGID_4_)" d="M287.921,456.689c1.571,8.666-5.129,12.018-11.117,4.534c0,0-4.938-6.095,2.439-9.918l0,0
				C286.422,447.513,287.921,456.689,287.921,456.689z"/>
			
				<linearGradient id="SVGID_5_" gradientUnits="userSpaceOnUse" x1="269.9194" y1="448.709" x2="273.6716" y2="451.7631" gradientTransform="matrix(0.9985 -0.0553 0.0553 0.9985 -12.4291 11.7424)">
				<stop  offset="0" style="stop-color:#AB0F14"/>
				<stop  offset="1" style="stop-color:#780000"/>
			</linearGradient>
			<circle fill="url(#SVGID_5_)" cx="284.208" cy="446.529" r="2.246"/>
			
				<linearGradient id="SVGID_6_" gradientUnits="userSpaceOnUse" x1="257.1416" y1="456.4316" x2="260.8946" y2="459.4864" gradientTransform="matrix(0.9985 -0.0553 0.0553 0.9985 -12.4291 11.7424)">
				<stop  offset="0" style="stop-color:#AB0F14"/>
				<stop  offset="1" style="stop-color:#780000"/>
			</linearGradient>
			<circle fill="url(#SVGID_6_)" cx="271.876" cy="454.946" r="2.247"/>
			
				<linearGradient id="SVGID_7_" gradientUnits="userSpaceOnUse" x1="264.4487" y1="448.9658" x2="268.7872" y2="452.4972" gradientTransform="matrix(0.9985 -0.0553 0.0553 0.9985 -12.4291 11.7424)">
				<stop  offset="0" style="stop-color:#AB0F14"/>
				<stop  offset="1" style="stop-color:#780000"/>
			</linearGradient>
			<circle fill="url(#SVGID_7_)" cx="279.12" cy="447.349" r="2.598"/>
			
				<linearGradient id="SVGID_8_" gradientUnits="userSpaceOnUse" x1="259.6953" y1="451.4795" x2="263.7215" y2="454.7566" gradientTransform="matrix(0.9985 -0.0553 0.0553 0.9985 -12.4291 11.7424)">
				<stop  offset="0" style="stop-color:#AB0F14"/>
				<stop  offset="1" style="stop-color:#780000"/>
			</linearGradient>
			<circle fill="url(#SVGID_8_)" cx="274.321" cy="449.982" r="2.411"/>
			<polygon fill="#EFEFF0" points="284.604,443.311 283.951,441.256 283.419,443.344 			"/>
			<polygon fill="#EFEFF0" points="278.688,443.748 277.654,441.856 277.532,444.008 			"/>
			<polygon fill="#EFEFF0" points="273.052,447.08 271.455,445.632 272.046,447.706 			"/>
			<polygon fill="#EFEFF0" points="270.92,452.291 269.249,450.934 269.951,452.971 			"/>
		</g>
	</g>
	<g>
		<g>
			
				<linearGradient id="SVGID_9_" gradientUnits="userSpaceOnUse" x1="334.4443" y1="451.499" x2="310.8336" y2="425.1634" gradientTransform="matrix(0.9984 0.0569 -0.0569 0.9984 14.5109 -4.6662)">
				<stop  offset="0" style="stop-color:#AB0F14"/>
				<stop  offset="1" style="stop-color:#DD5326"/>
			</linearGradient>
			<path fill="url(#SVGID_9_)" d="M305.324,453.917c-2.804,15.332,9.047,21.283,19.663,8.056c0,0,8.761-10.772-4.288-17.558l0,0
				C308.003,437.681,305.324,453.917,305.324,453.917z"/>
			
				<linearGradient id="SVGID_10_" gradientUnits="userSpaceOnUse" x1="-15.499" y1="440.1143" x2="-3.7851" y2="449.6489" gradientTransform="matrix(-0.9984 -0.0569 -0.0569 0.9984 331.35 12.8736)">
				<stop  offset="0" style="stop-color:#AB0F14"/>
				<stop  offset="1" style="stop-color:#780000"/>
			</linearGradient>
			<path fill="url(#SVGID_10_)" d="M309.14,457.49c-1.536,8.404,4.958,11.666,10.778,4.415c0,0,4.802-5.904-2.352-9.623l0,0
				C310.608,448.591,309.14,457.49,309.14,457.49z"/>
			
				<linearGradient id="SVGID_11_" gradientUnits="userSpaceOnUse" x1="-8.3223" y1="433.3613" x2="-4.6818" y2="436.3245" gradientTransform="matrix(-0.9984 -0.0569 -0.0569 0.9984 331.35 12.8736)">
				<stop  offset="0" style="stop-color:#AB0F14"/>
				<stop  offset="1" style="stop-color:#780000"/>
			</linearGradient>
			<circle fill="url(#SVGID_11_)" cx="312.757" cy="447.639" r="2.179"/>
			
				<linearGradient id="SVGID_12_" gradientUnits="userSpaceOnUse" x1="-20.7173" y1="440.8535" x2="-17.0777" y2="443.816" gradientTransform="matrix(-0.9984 -0.0569 -0.0569 0.9984 331.35 12.8736)">
				<stop  offset="0" style="stop-color:#AB0F14"/>
				<stop  offset="1" style="stop-color:#780000"/>
			</linearGradient>
			<circle fill="url(#SVGID_12_)" cx="324.707" cy="455.824" r="2.179"/>
			
				<linearGradient id="SVGID_13_" gradientUnits="userSpaceOnUse" x1="-13.6299" y1="433.6094" x2="-9.4202" y2="437.0358" gradientTransform="matrix(-0.9984 -0.0569 -0.0569 0.9984 331.35 12.8736)">
				<stop  offset="0" style="stop-color:#AB0F14"/>
				<stop  offset="1" style="stop-color:#780000"/>
			</linearGradient>
			<circle fill="url(#SVGID_13_)" cx="317.691" cy="448.442" r="2.52"/>
			
				<linearGradient id="SVGID_14_" gradientUnits="userSpaceOnUse" x1="-18.2407" y1="436.0488" x2="-14.3353" y2="439.2277" gradientTransform="matrix(-0.9984 -0.0569 -0.0569 0.9984 331.35 12.8736)">
				<stop  offset="0" style="stop-color:#AB0F14"/>
				<stop  offset="1" style="stop-color:#780000"/>
			</linearGradient>
			<circle fill="url(#SVGID_14_)" cx="322.343" cy="451.003" r="2.338"/>
			<polygon fill="#EFEFF0" points="312.38,444.516 313.014,442.524 313.527,444.55 			"/>
			<polygon fill="#EFEFF0" points="318.118,444.949 319.122,443.115 319.238,445.203 			"/>
			<polygon fill="#EFEFF0" points="323.58,448.191 325.129,446.789 324.555,448.799 			"/>
			<polygon fill="#EFEFF0" points="325.639,453.249 327.264,451.936 326.579,453.91 			"/>
		</g>
	</g>
	<g>
		
			<linearGradient id="SVGID_15_" gradientUnits="userSpaceOnUse" x1="349.1729" y1="333.4897" x2="372.9958" y2="364.9687" gradientTransform="matrix(0.919 0.3942 -0.3942 0.919 83.0428 -39.5781)">
			<stop  offset="0" style="stop-color:#AB0F14"/>
			<stop  offset="1" style="stop-color:#DD5326"/>
		</linearGradient>
		<path fill="url(#SVGID_15_)" d="M284.724,411.426c0,0-22.264,11.508-13.508,28.425c8.757,16.917,16.993,1.805,12.813-3.278
			c-4.181-5.084-7.697-15.805,1.304-22.473"/>
		<g>
			<polygon fill="#EFEFF0" points="284.374,442.521 284.925,443.257 284.007,443.439 			"/>
			<polygon fill="#EFEFF0" points="283.618,444.35 284.053,445.158 283.117,445.202 			"/>
			<polygon fill="#EFEFF0" points="282.341,445.859 282.506,446.763 281.603,446.518 			"/>
			<polygon fill="#EFEFF0" points="281.134,446.957 280.923,447.851 280.193,447.263 			"/>
		</g>
	</g>
	<g>
		<linearGradient id="SVGID_16_" gradientUnits="userSpaceOnUse" x1="330.2461" y1="451.3164" x2="305.0468" y2="415.4324">
			<stop  offset="0" style="stop-color:#AB0F14"/>
			<stop  offset="1" style="stop-color:#DD5326"/>
		</linearGradient>
		<path fill="url(#SVGID_16_)" d="M310.912,411.092c0,0,22.266,11.508,13.509,28.426c-8.757,16.919-16.993,1.805-12.813-3.278
			c4.18-5.085,7.697-15.807-1.305-22.474"/>
		<g>
			<polygon fill="#EFEFF0" points="312.753,445.136 311.837,445.195 312.187,444.326 			"/>
			<polygon fill="#EFEFF0" points="311.637,443.503 310.722,443.425 311.196,442.618 			"/>
			<polygon fill="#EFEFF0" points="311.071,441.607 310.225,441.252 310.924,440.63 			"/>
			<polygon fill="#EFEFF0" points="310.812,439.998 310.18,439.332 311.069,439.043 			"/>
		</g>
	</g>
	<g>
		<g>
			<linearGradient id="SVGID_17_" gradientUnits="userSpaceOnUse" x1="268.2949" y1="396.2803" x2="330.9033" y2="396.2803">
				<stop  offset="0" style="stop-color:#AB0F14"/>
				<stop  offset="1" style="stop-color:#DD5326"/>
			</linearGradient>
			<path fill="url(#SVGID_17_)" d="M330.903,377.662c0-5.676-4.603-10.277-10.278-10.277c-4.721,0-8.688,3.188-9.893,7.525
				c-3.336-1.503-7.033-2.346-10.93-2.346c-3.981,0-7.754,0.879-11.146,2.443c-0.918-4.735-5.082-8.312-10.086-8.312
				c-5.675,0-10.275,4.601-10.275,10.277c0,4.838,3.347,8.885,7.849,9.977c-1.907,3.672-2.991,7.841-2.991,12.266
				c0,14.719,11.932,26.65,26.65,26.65s26.65-11.932,26.65-26.65c0-4.22-0.984-8.207-2.73-11.753
				C327.884,386.147,330.903,382.258,330.903,377.662z"/>
			
				<linearGradient id="SVGID_18_" gradientUnits="userSpaceOnUse" x1="49.1128" y1="-151.3203" x2="58.7649" y2="-138.5663" gradientTransform="matrix(-0.9696 0.2448 -0.2448 -0.9696 297.67 225.6753)">
				<stop  offset="0" style="stop-color:#AB0F14"/>
				<stop  offset="1" style="stop-color:#DD5326"/>
			</linearGradient>
			<circle fill="url(#SVGID_18_)" cx="278.67" cy="377.668" r="6.894"/>
			
				<linearGradient id="SVGID_19_" gradientUnits="userSpaceOnUse" x1="120.6709" y1="-162.8433" x2="130.3237" y2="-150.0884" gradientTransform="matrix(-0.9287 0.3708 -0.3708 -0.9287 380.6904 188.2988)">
				<stop  offset="0" style="stop-color:#AB0F14"/>
				<stop  offset="1" style="stop-color:#DD5326"/>
			</linearGradient>
			<circle fill="url(#SVGID_19_)" cx="319.764" cy="378.698" r="6.894"/>
		</g>
		<circle fill="#FBB271" cx="279.082" cy="406.514" r="3.588"/>
		<circle fill="#FBB271" cx="320.115" cy="406.789" r="3.864"/>
		<g>
			<path fill="#E3B194" d="M314.319,408.813c0,7.014-6.674,12.697-14.905,12.697s-14.904-5.684-14.904-12.697
				c0-7.012,6.673-6.485,14.904-6.485S314.319,401.801,314.319,408.813z"/>
			<g>
				<circle cx="313.468" cy="403.109" r="3.496"/>
				<circle fill="#FFFFFF" cx="311.995" cy="402.189" r="1.656"/>
			</g>
			<g>
				<circle cx="285.199" cy="403.109" r="3.496"/>
				<circle fill="#FFFFFF" cx="283.727" cy="402.189" r="1.656"/>
			</g>
			<linearGradient id="SVGID_20_" gradientUnits="userSpaceOnUse" x1="299.5986" y1="408.2612" x2="299.5986" y2="416.9398">
				<stop  offset="0" style="stop-color:#AB0F14"/>
				<stop  offset="1" style="stop-color:#EE2E24"/>
			</linearGradient>
			<path fill="url(#SVGID_20_)" d="M303.021,410.976c-1.389,0-2.574-0.812-3.146-1.979h-0.551c-0.572,1.167-1.758,1.979-3.146,1.979
				c-1.219,0-2.292-0.618-2.925-1.559c0,0.013-0.002,0.026-0.002,0.04c0,3.506,2.842,6.348,6.348,6.348
				c3.507,0,6.349-2.842,6.349-6.348c0-0.014-0.002-0.025-0.002-0.039C305.312,410.357,304.238,410.976,303.021,410.976z"/>
			<path d="M303.151,406.198c0,1.542-2.173,3.042-3.623,3.005c-1.414-0.033-3.553-1.463-3.553-3.005l0,0
				c0-1.541,1.25-2.791,2.791-2.791h1.594C301.901,403.408,303.151,404.657,303.151,406.198L303.151,406.198z"/>
		</g>
	</g>
</g>
</svg>
