<svg xmlns="http://www.w3.org/2000/svg" xmlns:xlink="http://www.w3.org/1999/xlink" version="1.1" x="0px" y="0px" width="100px" height="100px" viewBox="0 0 100 100" enable-background="new 0 0 100 100" xml:space="preserve">
<g id="Captions">
</g>
<g id="Your_Icon">
	<path d="M70.331,63.27H22.118c-1.641,0-3.198-0.725-4.252-1.983c-1.055-1.258-1.499-2.918-1.212-4.535l5.607-31.632H5.66   c-3.066,0-5.551-2.486-5.551-5.551c0-3.065,2.485-5.549,5.551-5.549h23.222c1.643,0,3.199,0.726,4.253,1.984   c1.055,1.258,1.499,2.918,1.213,4.536l-5.607,31.63h38.524l22.378-35.556c1.634-2.595,5.06-3.374,7.654-1.741   c2.594,1.632,3.374,5.06,1.741,7.653l-24.01,38.154C74.013,62.292,72.238,63.27,70.331,63.27z"/>
	<circle cx="21.545" cy="77.755" r="8.23"/>
	<circle cx="55.997" cy="77.755" r="8.23"/>
</g>
</svg>