<?xml version="1.0" encoding="utf-8"?>
<!-- Generator: Adobe Illustrator 15.0.0, SVG Export Plug-In  -->
<!DOCTYPE svg PUBLIC "-//W3C//DTD SVG 1.1//EN" "http://www.w3.org/Graphics/SVG/1.1/DTD/svg11.dtd" [
	<!ENTITY ns_flows "http://ns.adobe.com/Flows/1.0/">
]>
<svg version="1.1"
	 xmlns="http://www.w3.org/2000/svg" xmlns:xlink="http://www.w3.org/1999/xlink" xmlns:a="http://ns.adobe.com/AdobeSVGViewerExtensions/3.0/"
	 x="0px" y="0px" width="493px" height="432px" viewBox="-0.4 0 493 432" enable-background="new -0.4 0 493 432"
	 xml:space="preserve">
<defs>
</defs>
<path fill="#BDC3C7" d="M242.9,381.6h12.4l-6.5-12.1l1.9-1.9c0.9-0.9,0.9-2.2,0-3.1s-2.2-0.9-3.1,0l-0.9,0.9l-4.3-8.1l2.2-2.2
	c0.9-0.9,0.9-2.2,0-3.1c-0.9-0.9-2.2-0.9-3.1,0l-1.2,1.2l-6.5-12.1l18.6-18.6c3.4-3.4,3.4-9,0-12.4c-3.4-3.4-9-3.4-12.4,0
	l-18.6,18.6l-12.1-6.5l1.2-1.2c0.9-0.9,0.9-2.2,0-3.1c-0.9-0.9-2.2-0.9-3.1,0l-2.2,2.2l-8.1-4.3l0.9-0.9c0.9-0.9,0.9-2.2,0-3.1
	c-0.9-0.9-2.2-0.9-3.1,0l-1.9,1.9l-12.1-6.5v12.4l27.9,21.7l-24.8,24.8l-24.8-6.2v6.2l21.7,15.5l15.5,21.7h6.2l-6.2-24.8l24.8-24.8
	L242.9,381.6z"/>
<path fill="#BDC3C7" d="M223.1,118.4l8.8,1.8l-2.9-9.5l1.6-1c0.7-0.5,0.9-1.5,0.5-2.2c-0.5-0.7-1.5-0.9-2.2-0.5l-0.8,0.5l-1.9-6.3
	l1.8-1.2c0.7-0.5,0.9-1.5,0.5-2.2c-0.5-0.7-1.5-0.9-2.2-0.5l-1.1,0.7l-2.9-9.5l15.9-10.5c2.9-1.9,3.7-5.9,1.8-8.8
	c-1.9-2.9-5.9-3.7-8.8-1.8l-15.9,10.5l-7.6-6.4l1.1-0.7c0.7-0.5,0.9-1.5,0.5-2.2c-0.5-0.7-1.5-0.9-2.2-0.5l-1.9,1.2l-5.1-4.2
	l0.8-0.5c0.7-0.5,0.9-1.5,0.5-2.2c-0.5-0.7-1.5-0.9-2.2-0.5l-1.6,1l-7.6-6.4l-1.8,8.8l16.6,19.4l-21.2,13.9l-16.7-8l-0.9,4.4
	l13.1,14.1l7.8,17.6l4.4,0.9l-0.8-18.5l21.2-13.9L223.1,118.4z"/>
<path fill="#BDC3C7" d="M449.2,244.1l6.6-6.1l-9.4-3.2l0.1-1.9c0-0.9-0.7-1.6-1.5-1.6c-0.9,0-1.6,0.7-1.6,1.5l0,1l-6.3-2.1l0.1-2.2
	c0-0.9-0.6-1.6-1.5-1.6c-0.9,0-1.6,0.7-1.6,1.5l0,1.3l-9.4-3.2l0.7-19c0.1-3.5-2.6-6.4-6.1-6.6c-3.5-0.1-6.4,2.6-6.6,6.1l-0.7,19
	l-9.6,2.5l0-1.3c0-0.9-0.6-1.6-1.5-1.6c-0.9,0-1.6,0.6-1.6,1.5l-0.1,2.2l-6.4,1.7l0-1c0-0.9-0.7-1.6-1.5-1.6c-0.9,0-1.6,0.7-1.6,1.5
	l-0.1,1.9l-9.6,2.5l6.1,6.6l25.4-2.3l-0.9,25.3l-16.2,8.9l3.1,3.3l19.1-2.5l18.9,3.9l3.3-3.1L423,265.3L424,240L449.2,244.1z"/>
<path fill="#BDC3C7" d="M149.5,345.3l2.3-2.2l-3.3-1.1l0-0.7c0-0.3-0.2-0.6-0.5-0.6c-0.3,0-0.6,0.2-0.6,0.5l0,0.3l-2.2-0.8l0-0.8
	c0-0.3-0.2-0.6-0.5-0.6c-0.3,0-0.6,0.2-0.6,0.5l0,0.4l-3.3-1.1l0.2-6.7c0-1.2-0.9-2.3-2.2-2.3c-1.2,0-2.3,0.9-2.3,2.2l-0.2,6.7
	l-3.4,0.9l0-0.4c0-0.3-0.2-0.6-0.5-0.6c-0.3,0-0.6,0.2-0.6,0.5l0,0.8l-2.3,0.6l0-0.3c0-0.3-0.2-0.6-0.5-0.6c-0.3,0-0.6,0.2-0.6,0.5
	l0,0.7l-3.4,0.9l2.2,2.3l9-0.8l-0.3,9l-5.7,3.2l1.1,1.2l6.8-0.9l6.7,1.4l1.2-1.1l-5.5-3.6l0.3-9L149.5,345.3z"/>
<path fill="#BDC3C7" d="M404.6,66.8l2.1-4l-5,0.1l-0.3-0.9c-0.1-0.4-0.6-0.6-1-0.5c-0.4,0.1-0.6,0.6-0.5,1L400,63l-3.3,0.1l-0.3-1.1
	c-0.1-0.4-0.6-0.7-1-0.5c-0.4,0.1-0.6,0.6-0.5,1l0.2,0.6l-5,0.1l-2.9-9.1c-0.5-1.7-2.3-2.6-4-2.1c-1.7,0.5-2.6,2.3-2.1,4l2.9,9.1
	l-4.1,2.8l-0.2-0.6c-0.1-0.4-0.6-0.6-1-0.5c-0.4,0.1-0.6,0.6-0.5,1l0.3,1.1l-2.7,1.9l-0.1-0.5c-0.1-0.4-0.6-0.6-1-0.5
	c-0.4,0.1-0.6,0.6-0.5,1l0.3,0.9l-4.1,2.8l4,2.1l11.6-5.4l3.9,12.1l-6.1,7l2,1l8.6-4.4l9.6-1.4l1-2l-9-2.1L392,69.2L404.6,66.8z"/>
<path fill="#BDC3C7" d="M14.2,117.1l0.7-1.6l-1.9,0.2l-0.1-0.3c-0.1-0.2-0.2-0.2-0.4-0.2c-0.2,0.1-0.2,0.2-0.2,0.4l0.1,0.2l-1.3,0.1
	l-0.2-0.4c-0.1-0.2-0.2-0.2-0.4-0.2c-0.2,0.1-0.2,0.2-0.2,0.4l0.1,0.2l-1.9,0.2l-1.3-3.4c-0.2-0.6-1-0.9-1.6-0.7
	c-0.6,0.2-0.9,1-0.7,1.6l1.3,3.4l-1.5,1.2l-0.1-0.2c-0.1-0.2-0.2-0.2-0.4-0.2c-0.2,0.1-0.2,0.2-0.2,0.4l0.2,0.4l-1,0.8l-0.1-0.2
	C3.2,119,3,118.9,2.9,119c-0.2,0.1-0.2,0.2-0.2,0.4l0.1,0.3l-1.5,1.2l1.6,0.7l4.3-2.4l1.8,4.5l-2.2,2.8l0.8,0.3l3.2-1.9l3.6-0.8
	l0.3-0.8l-3.5-0.6l-1.8-4.5L14.2,117.1z"/>
<path fill="#BDC3C7" d="M291.3,166.5l1.3-1.2l-1.8-0.6l0-0.4c0-0.2-0.1-0.3-0.3-0.3c-0.2,0-0.3,0.1-0.3,0.3l0,0.2l-1.2-0.4l0-0.4
	c0-0.2-0.1-0.3-0.3-0.3s-0.3,0.1-0.3,0.3l0,0.2l-1.8-0.6l0.2-3.7c0-0.7-0.5-1.2-1.2-1.3c-0.7,0-1.2,0.5-1.3,1.2l-0.2,3.7l-1.9,0.5
	l0-0.2c0-0.2-0.1-0.3-0.3-0.3c-0.2,0-0.3,0.1-0.3,0.3l0,0.4l-1.2,0.3l0-0.2c0-0.2-0.1-0.3-0.3-0.3s-0.3,0.1-0.3,0.3l0,0.4l-1.9,0.5
	l1.2,1.3l4.9-0.4l-0.2,4.9l-3.1,1.7l0.6,0.6l3.7-0.4l3.6,0.8l0.6-0.6l-3-2l0.2-4.9L291.3,166.5z"/>
<path fill="#BDC3C7" d="M59.6,39.5l1.3-1.2l-1.8-0.6l0-0.4c0-0.2-0.1-0.3-0.3-0.3c-0.2,0-0.3,0.1-0.3,0.3l0,0.2l-1.2-0.4l0-0.4
	c0-0.2-0.1-0.3-0.3-0.3c-0.2,0-0.3,0.1-0.3,0.3l0,0.2l-1.8-0.6l0.2-3.7c0-0.7-0.5-1.2-1.2-1.3c-0.7,0-1.2,0.5-1.3,1.2l-0.2,3.7
	l-1.9,0.5l0-0.2c0-0.2-0.1-0.3-0.3-0.3c-0.2,0-0.3,0.1-0.3,0.3l0,0.4l-1.2,0.3l0-0.2c0-0.2-0.1-0.3-0.3-0.3c-0.2,0-0.3,0.1-0.3,0.3
	l0,0.4l-1.9,0.5l1.2,1.3l4.9-0.4l-0.2,4.9L49,45.2l0.6,0.6l3.7-0.4l3.6,0.8l0.6-0.6l-3-2l0.2-4.9L59.6,39.5z"/>
<path fill="#BDC3C7" d="M116.6,99.4l2.1-4l-5,0.1l-0.3-0.9c-0.1-0.4-0.6-0.6-1-0.5c-0.4,0.1-0.6,0.6-0.5,1l0.1,0.5l-3.3,0.1
	l-0.3-1.1c-0.1-0.4-0.6-0.7-1-0.5c-0.4,0.1-0.6,0.6-0.5,1l0.2,0.6l-5,0.1l-2.9-9.1c-0.5-1.7-2.3-2.6-4-2.1c-1.7,0.5-2.6,2.3-2.1,4
	l2.9,9.1l-4.1,2.8l-0.2-0.6c-0.1-0.4-0.6-0.6-1-0.5c-0.4,0.1-0.6,0.6-0.5,1l0.3,1.1l-2.7,1.9l-0.1-0.5c-0.1-0.4-0.6-0.6-1-0.5
	c-0.4,0.1-0.6,0.6-0.5,1l0.3,0.9l-4.1,2.8l4,2.1l11.6-5.4l3.9,12.1l-6.1,7l2,1l8.6-4.4l9.6-1.4l1-2l-9-2.1l-3.9-12.1L116.6,99.4z"/>
<polygon fill="#E57E25" points="463.4,144.5 480.2,122.3 463.5,116.6 "/>
<polygon fill="#F29D1F" points="461.4,115.9 482.3,123 487.2,115.3 462.1,106.9 "/>
<circle fill="#3C97D3" cx="478.8" cy="102.1" r="7.7"/>
<path fill="#EDF0F1" d="M487.1,115.3c0.2-0.3,0.3-0.7,0.4-1c1.4-4-0.8-8.4-4.8-9.8c-4-1.4-8.4,0.8-9.8,4.8c-0.1,0.4-0.2,0.7-0.3,1.1
	L487.1,115.3z"/>
<path fill="#29B99A" d="M476.6,111.8c0.2-0.3,0.3-0.7,0.4-1c1.4-4-0.8-8.4-4.8-9.8c-4-1.4-8.4,0.8-9.8,4.8c-0.1,0.4-0.2,0.7-0.3,1.1
	L476.6,111.8z"/>
<polygon fill="#E57E25" points="164.2,343.4 188.3,278.9 144.7,277.4 "/>
<polygon fill="#F29D1F" points="139.3,277.2 193.7,279.1 199.9,257.5 134.6,255.2 "/>
<path fill="#3C97D3" d="M189.9,232.6c-0.4,10.5-9.2,18.7-19.7,18.4c-10.5-0.4-18.7-9.2-18.4-19.7s9.2-18.7,19.7-18.4
	C182,213.3,190.3,222.1,189.9,232.6z"/>
<path fill="#EDF0F1" d="M199.7,257.5c0.2-0.9,0.3-1.8,0.3-2.7c0.4-10.5-7.9-19.3-18.4-19.7c-10.5-0.4-19.3,7.9-19.7,18.4
	c0,0.9,0,1.8,0.1,2.7L199.7,257.5z"/>
<path fill="#29B99A" d="M172.5,256.5c0.2-0.9,0.3-1.8,0.3-2.7c0.4-10.5-7.9-19.3-18.4-19.7c-10.5-0.4-19.3,7.9-19.7,18.4
	c0,0.9,0,1.8,0.1,2.7L172.5,256.5z"/>
<polygon fill="#E57E25" points="308.1,176.6 308.2,103.7 264.5,118.2 "/>
<polygon fill="#F29D1F" points="259,120 313.7,101.9 311.9,78.2 246.3,100 "/>
<path fill="#3C97D3" d="M292.8,57.2c3.5,10.6-2.2,22-12.8,25.5c-10.6,3.5-22-2.2-25.5-12.8s2.2-22,12.8-25.5
	C277.9,40.9,289.3,46.7,292.8,57.2z"/>
<path fill="#EDF0F1" d="M311.7,78.3c-0.2-0.9-0.4-1.9-0.7-2.8c-3.5-10.6-14.9-16.3-25.5-12.8c-10.6,3.5-16.3,14.9-12.8,25.5
	c0.3,0.9,0.7,1.8,1.1,2.7L311.7,78.3z"/>
<path fill="#29B99A" d="M284.3,87.3c-0.2-0.9-0.4-1.9-0.7-2.8c-3.5-10.6-14.9-16.3-25.5-12.8c-10.6,3.5-16.3,14.9-12.8,25.5
	c0.3,0.9,0.7,1.8,1.1,2.7L284.3,87.3z"/>
<polygon fill="#E57E25" points="357.4,90.7 367.7,64.9 350.1,63.9 "/>
<polygon fill="#F29D1F" points="347.9,63.7 369.9,65 372.6,56.3 346.2,54.8 "/>
<circle fill="#3C97D3" cx="361.1" cy="45.7" r="7.7"/>
<path fill="#EDF0F1" d="M372.5,56.3c0.1-0.4,0.1-0.7,0.2-1.1c0.2-4.3-3-7.9-7.3-8.1c-4.3-0.2-7.9,3-8.1,7.3c0,0.4,0,0.7,0,1.1
	L372.5,56.3z"/>
<path fill="#29B99A" d="M361.5,55.7c0.1-0.4,0.1-0.7,0.2-1.1c0.2-4.3-3-7.9-7.3-8.1c-4.3-0.2-7.9,3-8.1,7.3c0,0.4,0,0.7,0,1.1
	L361.5,55.7z"/>
<polygon fill="#E57E25" points="408.1,203.1 415.6,184.4 402.9,183.7 "/>
<polygon fill="#F29D1F" points="401.3,183.6 417.2,184.5 419.1,178.3 400.1,177.2 "/>
<circle fill="#3C97D3" cx="410.8" cy="170.6" r="5.6"/>
<path fill="#EDF0F1" d="M419.1,178.3c0.1-0.3,0.1-0.5,0.1-0.8c0.2-3.1-2.2-5.7-5.2-5.9c-3.1-0.2-5.7,2.2-5.9,5.2c0,0.3,0,0.5,0,0.8
	L419.1,178.3z"/>
<path fill="#29B99A" d="M411.1,177.8c0.1-0.3,0.1-0.5,0.1-0.8c0.2-3.1-2.2-5.7-5.2-5.9c-3.1-0.2-5.7,2.2-5.9,5.2c0,0.3,0,0.5,0,0.8
	L411.1,177.8z"/>
<polygon fill="#E57E25" points="173.4,45.5 178.9,24.5 165.2,25.3 "/>
<polygon fill="#F29D1F" points="163.5,25.4 180.7,24.4 181.9,17.4 161.3,18.7 "/>
<circle fill="#3C97D3" cx="172" cy="10.2" r="6"/>
<path fill="#EDF0F1" d="M181.9,17.4c0-0.3,0-0.6,0-0.9c-0.2-3.3-3.1-5.8-6.4-5.6c-3.3,0.2-5.8,3.1-5.6,6.4c0,0.3,0.1,0.6,0.1,0.9
	L181.9,17.4z"/>
<path fill="#29B99A" d="M173.3,17.9c0-0.3,0-0.6,0-0.9c-0.2-3.3-3.1-5.8-6.4-5.6c-3.3,0.2-5.8,3.1-5.6,6.4c0,0.3,0.1,0.6,0.1,0.9
	L173.3,17.9z"/>
<polygon fill="#E57E25" points="25.4,130.6 38.2,96.2 15,95.4 "/>
<polygon fill="#F29D1F" points="12.1,95.3 41.1,96.3 44.4,84.9 9.6,83.6 "/>
<circle fill="#3C97D3" cx="28.9" cy="71.3" r="10.1"/>
<path fill="#EDF0F1" d="M44.3,84.8c0.1-0.5,0.1-1,0.2-1.4c0.2-5.6-4.2-10.3-9.8-10.5c-5.6-0.2-10.3,4.2-10.5,9.8c0,0.5,0,1,0.1,1.5
	L44.3,84.8z"/>
<path fill="#29B99A" d="M29.8,84.3c0.1-0.5,0.2-1,0.2-1.4c0.2-5.6-4.2-10.3-9.8-10.5c-5.6-0.2-10.3,4.2-10.5,9.8c0,0.5,0,1,0.1,1.5
	L29.8,84.3z"/>
<polygon fill="#E57E25" points="87,311.6 93.4,287.6 77.8,288.6 "/>
<polygon fill="#F29D1F" points="75.8,288.7 95.3,287.5 96.8,279.6 73.4,281.1 "/>
<circle fill="#3C97D3" cx="85.5" cy="271.5" r="6.8"/>
<path fill="#EDF0F1" d="M96.7,279.6c0-0.3,0-0.6,0-1c-0.2-3.8-3.5-6.6-7.3-6.4c-3.8,0.2-6.6,3.5-6.4,7.3c0,0.3,0.1,0.7,0.1,1
	L96.7,279.6z"/>
<path fill="#29B99A" d="M86.9,280.2c0-0.3,0-0.6,0-1c-0.2-3.8-3.5-6.6-7.3-6.4c-3.8,0.2-6.6,3.5-6.4,7.3c0,0.3,0.1,0.7,0.1,1
	L86.9,280.2z"/>
<polygon fill="#E57E25" points="397.7,318.2 401.9,307.5 394.7,307.1 "/>
<polygon fill="#F29D1F" points="393.8,307.1 402.9,307.6 404,304 393.1,303.4 "/>
<circle fill="#3C97D3" cx="399.2" cy="299.6" r="3.2"/>
<path fill="#EDF0F1" d="M403.9,304c0-0.1,0.1-0.3,0.1-0.5c0.1-1.8-1.2-3.3-3-3.4s-3.3,1.2-3.4,3c0,0.2,0,0.3,0,0.5L403.9,304z"/>
<path fill="#29B99A" d="M399.4,303.7c0-0.1,0.1-0.3,0.1-0.5c0.1-1.8-1.2-3.3-3-3.4c-1.8-0.1-3.3,1.2-3.4,3c0,0.2,0,0.3,0,0.5
	L399.4,303.7z"/>
<polygon fill="#E57E25" points="333.1,378.7 340.7,370 333.9,367.2 "/>
<polygon fill="#F29D1F" points="333.1,366.9 341.5,370.4 343.7,367.3 333.6,363.2 "/>
<circle fill="#3C97D3" cx="340.7" cy="361.6" r="3.2"/>
<path fill="#EDF0F1" d="M343.7,367.3c0.1-0.1,0.1-0.3,0.2-0.4c0.7-1.6-0.1-3.5-1.7-4.2c-1.6-0.7-3.5,0.1-4.2,1.7
	c-0.1,0.1-0.1,0.3-0.1,0.4L343.7,367.3z"/>
<path fill="#29B99A" d="M339.5,365.6c0.1-0.1,0.1-0.3,0.2-0.4c0.7-1.6-0.1-3.5-1.7-4.2c-1.6-0.7-3.5,0.1-4.2,1.7
	c-0.1,0.1-0.1,0.3-0.1,0.4L339.5,365.6z"/>
<polygon fill="#E57E25" points="89.8,232.8 95.4,218.9 85.9,218.3 "/>
<polygon fill="#F29D1F" points="84.7,218.2 96.6,218.9 98,214.2 83.8,213.4 "/>
<circle fill="#3C97D3" cx="91.8" cy="208.5" r="4.2"/>
<path fill="#EDF0F1" d="M98,214.2c0-0.2,0.1-0.4,0.1-0.6c0.1-2.3-1.6-4.3-3.9-4.4c-2.3-0.1-4.3,1.6-4.4,3.9c0,0.2,0,0.4,0,0.6
	L98,214.2z"/>
<path fill="#29B99A" d="M92.1,213.9c0-0.2,0.1-0.4,0.1-0.6c0.1-2.3-1.6-4.3-3.9-4.4c-2.3-0.1-4.3,1.6-4.4,3.9c0,0.2,0,0.4,0,0.6
	L92.1,213.9z"/>
<polygon fill="#E57E25" points="278.7,280.5 284.2,266.5 274.7,266 "/>
<polygon fill="#F29D1F" points="273.6,265.9 285.4,266.6 286.9,261.9 272.6,261.1 "/>
<circle fill="#3C97D3" cx="280.7" cy="256.2" r="4.2"/>
<path fill="#EDF0F1" d="M286.8,261.9c0-0.2,0.1-0.4,0.1-0.6c0.1-2.3-1.6-4.3-3.9-4.4c-2.3-0.1-4.3,1.6-4.4,3.9c0,0.2,0,0.4,0,0.6
	L286.8,261.9z"/>
<path fill="#29B99A" d="M280.9,261.5c0-0.2,0.1-0.4,0.1-0.6c0.1-2.3-1.6-4.3-3.9-4.4c-2.3-0.1-4.3,1.6-4.4,3.9c0,0.2,0,0.4,0,0.6
	L280.9,261.5z"/>
<polygon fill="#E57E25" points="129.1,194.3 140.6,165.4 120.9,164.3 "/>
<polygon fill="#F29D1F" points="118.5,164.1 143,165.5 146,155.9 116.6,154.2 "/>
<circle fill="#3C97D3" cx="133.2" cy="144" r="8.6"/>
<path fill="#EDF0F1" d="M146,155.9c0.1-0.4,0.1-0.8,0.2-1.2c0.3-4.7-3.4-8.8-8.1-9.1c-4.7-0.3-8.8,3.4-9.1,8.1c0,0.4,0,0.8,0,1.2
	L146,155.9z"/>
<path fill="#29B99A" d="M133.7,155.2c0.1-0.4,0.1-0.8,0.2-1.2c0.3-4.7-3.4-8.8-8.1-9.1c-4.7-0.3-8.8,3.4-9.1,8.1c0,0.4,0,0.8,0,1.2
	L133.7,155.2z"/>
<polygon fill="#E57E25" points="403.4,114.9 407.5,104.5 400.5,104.1 "/>
<polygon fill="#F29D1F" points="399.6,104.1 408.4,104.6 409.5,101.1 399,100.5 "/>
<circle fill="#3C97D3" cx="404.9" cy="96.9" r="3.1"/>
<path fill="#EDF0F1" d="M409.5,101.1c0-0.1,0.1-0.3,0.1-0.4c0.1-1.7-1.2-3.2-2.9-3.3c-1.7-0.1-3.2,1.2-3.3,2.9c0,0.1,0,0.3,0,0.4
	L409.5,101.1z"/>
<path fill="#29B99A" d="M405.1,100.8c0-0.1,0.1-0.3,0.1-0.4c0.1-1.7-1.2-3.2-2.9-3.3c-1.7-0.1-3.2,1.2-3.3,2.9c0,0.1,0,0.3,0,0.4
	L405.1,100.8z"/>
<polygon fill="#F0C419" points="334.6,354.6 312.9,285.5 368.3,290.8 "/>
<polygon fill="#F0C419" points="395.1,326.6 324.4,310.9 356.7,265.6 "/>
<polygon fill="#F0C419" points="401.1,260.2 352.2,313.6 329.1,262.9 "/>
<polygon fill="#F0C419" points="346.6,221.8 368.4,290.9 313,285.5 "/>
<polygon fill="#F0C419" points="286.1,249.8 356.8,265.5 324.5,310.8 "/>
<polygon fill="#F0C419" points="280.1,316.2 329,262.8 352.1,313.5 "/>
<polygon fill="#F0C419" points="345.7,232.9 360.2,278.9 323.3,275.4 "/>
<polygon fill="#F0C419" points="317.4,237.8 352.9,270.4 319.2,285.8 "/>
<polygon fill="#F0C419" points="295.2,256.1 342.4,266.6 320.8,296.8 "/>
<polygon fill="#F0C419" points="285.3,283.1 331.3,268.6 327.8,305.5 "/>
<polygon fill="#F0C419" points="290.2,311.5 322.8,275.9 338.2,309.6 "/>
<polygon fill="#F0C419" points="308.6,333.6 319,286.4 349.2,308 "/>
<polygon fill="#F0C419" points="335.5,343.5 321,297.5 358,301 "/>
<polygon fill="#F0C419" points="363.9,338.6 328.3,306 362.1,290.6 "/>
<polygon fill="#F0C419" points="386,320.2 338.9,309.8 360.4,279.6 "/>
<polygon fill="#F0C419" points="395.9,293.3 349.9,307.8 353.4,270.8 "/>
<polygon fill="#F0C419" points="391.1,264.9 358.5,300.5 343.1,266.8 "/>
<polygon fill="#F0C419" points="372.7,242.8 362.2,290 332,268.4 "/>
<polygon opacity="0.3" fill="#F0C419"  a:adobe-blending-mode="overlay" points="335.1,349 315.2,285.8 366,290.6 "/>
<polygon opacity="0.3" fill="#F0C419"  a:adobe-blending-mode="overlay" points="390.6,323.4 325.8,309 355.4,267.5 "/>
<polygon opacity="0.3" fill="#F0C419"  a:adobe-blending-mode="overlay" points="396.1,262.5 351.2,311.5 330.1,265 "/>
<polygon opacity="0.3" fill="#F0C419"  a:adobe-blending-mode="overlay" points="346.1,227.3 366.1,290.6 315.3,285.8 "/>
<polygon opacity="0.3" fill="#F0C419"  a:adobe-blending-mode="overlay" points="290.7,253 355.5,267.4 325.8,308.9 "/>
<polygon opacity="0.3" fill="#F0C419"  a:adobe-blending-mode="overlay" points="285.2,313.9 330,264.9 351.2,311.4 "/>
<polygon opacity="0.3" fill="#F0C419"  a:adobe-blending-mode="overlay" points="345.3,237.5 358.6,279.7 324.7,276.4 "/>
<polygon opacity="0.3" fill="#F0C419"  a:adobe-blending-mode="overlay" points="319.3,242 351.9,271.8 321,286 "/>
<polygon opacity="0.3" fill="#F0C419"  a:adobe-blending-mode="overlay" points="299,258.8 342.2,268.4 322.5,296.1 "/>
<polygon opacity="0.3" fill="#F0C419"  a:adobe-blending-mode="overlay" points="289.9,283.5 332.1,270.2 328.9,304.1 "/>
<polygon opacity="0.3" fill="#F0C419"  a:adobe-blending-mode="overlay" points="294.4,309.5 324.3,276.9 338.4,307.8 "/>
<polygon opacity="0.3" fill="#F0C419"  a:adobe-blending-mode="overlay" points="311.2,329.8 320.8,286.6 348.5,306.3 "/>
<polygon opacity="0.3" fill="#F0C419"  a:adobe-blending-mode="overlay" points="336,338.9 322.7,296.7 356.5,300 "/>
<polygon opacity="0.3" fill="#F0C419"  a:adobe-blending-mode="overlay" points="361.9,334.4 329.3,304.5 360.3,290.4 "/>
<polygon opacity="0.3" fill="#F0C419"  a:adobe-blending-mode="overlay" points="382.2,317.6 339,308 358.8,280.3 "/>
<polygon opacity="0.3" fill="#F0C419"  a:adobe-blending-mode="overlay" points="391.3,292.8 349.1,306.2 352.4,272.3 "/>
<polygon opacity="0.3" fill="#F0C419"  a:adobe-blending-mode="overlay" points="386.9,266.9 357,299.5 342.9,268.5 "/>
<polygon opacity="0.3" fill="#F0C419"  a:adobe-blending-mode="overlay" points="370,246.6 360.4,289.8 332.7,270.1 "/>
<path fill="#F0C419" d="M379.3,291.9c-2.1,21.4-21,37-42.4,35c-21.4-2.1-37-21-35-42.4c2.1-21.4,21-37,42.4-35
	C365.7,251.5,381.4,270.5,379.3,291.9z"/>
<circle opacity="0.3" fill="#F0C419" stroke="#FFFFFF"  a:adobe-blending-mode="overlay" cx="340.6" cy="288.2" r="34"/>
<polygon fill="#F0C419" points="183.8,356.8 177.8,342.7 189.6,342.7 "/>
<polygon fill="#F0C419" points="196,349.7 180.8,347.8 186.7,337.6 "/>
<polygon fill="#F0C419" points="196,335.5 186.7,347.8 180.8,337.6 "/>
<polygon fill="#F0C419" points="183.7,328.5 189.7,342.7 177.8,342.7 "/>
<polygon fill="#F0C419" points="171.4,335.7 186.7,337.5 180.8,347.8 "/>
<polygon fill="#F0C419" points="171.5,349.8 180.8,337.5 186.7,347.8 "/>
<polygon fill="#F0C419" points="183.7,330.9 187.7,340.3 179.8,340.3 "/>
<polygon fill="#F0C419" points="177.8,332.5 186,338.7 179.2,342.6 "/>
<polygon fill="#F0C419" points="173.5,336.8 183.7,338.1 179.7,344.9 "/>
<polygon fill="#F0C419" points="171.9,342.7 181.4,338.7 181.4,346.6 "/>
<polygon fill="#F0C419" points="173.6,348.6 179.7,340.4 183.7,347.3 "/>
<polygon fill="#F0C419" points="177.9,352.9 179.1,342.7 186,346.7 "/>
<polygon fill="#F0C419" points="183.8,354.5 179.8,345 187.7,345 "/>
<polygon fill="#F0C419" points="189.7,352.9 181.5,346.7 188.3,342.8 "/>
<polygon fill="#F0C419" points="194,348.5 183.8,347.3 187.7,340.5 "/>
<polygon fill="#F0C419" points="195.5,342.6 186.1,346.6 186.1,338.7 "/>
<polygon fill="#F0C419" points="193.9,336.7 187.8,344.9 183.8,338.1 "/>
<polygon fill="#F0C419" points="189.6,332.4 188.3,342.6 181.5,338.7 "/>
<polygon opacity="0.3" fill="#F0C419"  a:adobe-blending-mode="overlay" points="183.8,355.6 178.3,342.7 189.1,342.7 "/>
<polygon opacity="0.3" fill="#F0C419"  a:adobe-blending-mode="overlay" points="195,349.1 181,347.4 186.4,338 "/>
<polygon opacity="0.3" fill="#F0C419"  a:adobe-blending-mode="overlay" points="194.9,336.1 186.5,347.4 181,338 "/>
<polygon opacity="0.3" fill="#F0C419"  a:adobe-blending-mode="overlay" points="183.7,329.7 189.2,342.7 178.3,342.7 "/>
<polygon opacity="0.3" fill="#F0C419"  a:adobe-blending-mode="overlay" points="172.5,336.3 186.5,338 181,347.4 "/>
<polygon opacity="0.3" fill="#F0C419"  a:adobe-blending-mode="overlay" points="172.5,349.2 181,338 186.4,347.4 "/>
<polygon opacity="0.3" fill="#F0C419"  a:adobe-blending-mode="overlay" points="183.7,331.9 187.4,340.5 180.1,340.5 "/>
<polygon opacity="0.3" fill="#F0C419"  a:adobe-blending-mode="overlay" points="178.3,333.3 185.8,339 179.5,342.6 "/>
<polygon opacity="0.3" fill="#F0C419"  a:adobe-blending-mode="overlay" points="174.4,337.3 183.7,338.5 180.1,344.7 "/>
<polygon opacity="0.3" fill="#F0C419"  a:adobe-blending-mode="overlay" points="172.9,342.7 181.6,339.1 181.6,346.3 "/>
<polygon opacity="0.3" fill="#F0C419"  a:adobe-blending-mode="overlay" points="174.4,348.1 180.1,340.6 183.7,346.9 "/>
<polygon opacity="0.3" fill="#F0C419"  a:adobe-blending-mode="overlay" points="178.4,352.1 179.5,342.7 185.8,346.3 "/>
<polygon opacity="0.3" fill="#F0C419"  a:adobe-blending-mode="overlay" points="183.8,353.5 180.1,344.8 187.3,344.8 "/>
<polygon opacity="0.3" fill="#F0C419"  a:adobe-blending-mode="overlay" points="189.2,352 181.7,346.4 187.9,342.8 "/>
<polygon opacity="0.3" fill="#F0C419"  a:adobe-blending-mode="overlay" points="193.1,348 183.8,346.9 187.4,340.6 "/>
<polygon opacity="0.3" fill="#F0C419"  a:adobe-blending-mode="overlay" points="194.6,342.6 185.9,346.3 185.9,339.1 "/>
<polygon opacity="0.3" fill="#F0C419"  a:adobe-blending-mode="overlay" points="193.1,337.2 187.4,344.7 183.8,338.5 "/>
<polygon opacity="0.3" fill="#F0C419"  a:adobe-blending-mode="overlay" points="189.1,333.3 188,342.6 181.7,339 "/>
<circle fill="#F0C419" cx="183.7" cy="342.7" r="8.3"/>
<circle opacity="0.3" fill="#F0C419" stroke="#FFFFFF"  a:adobe-blending-mode="overlay" cx="183.7" cy="342.7" r="7.2"/>
<polygon fill="#F0C419" points="371.4,39.4 363,19.7 379.5,19.7 "/>
<polygon fill="#F0C419" points="388.4,29.4 367.2,26.8 375.4,12.6 "/>
<polygon fill="#F0C419" points="388.3,9.7 375.4,26.8 367.2,12.6 "/>
<polygon fill="#F0C419" points="371.2,0 379.5,19.7 363.1,19.7 "/>
<polygon fill="#F0C419" points="354.2,9.9 375.4,12.5 367.2,26.8 "/>
<polygon fill="#F0C419" points="354.3,29.6 367.2,12.5 375.4,26.8 "/>
<polygon fill="#F0C419" points="371.2,3.3 376.8,16.4 365.8,16.4 "/>
<polygon fill="#F0C419" points="363,5.5 374.4,14.1 364.9,19.6 "/>
<polygon fill="#F0C419" points="357,11.5 371.2,13.3 365.7,22.8 "/>
<polygon fill="#F0C419" points="354.9,19.7 368,14.2 368,25.1 "/>
<polygon fill="#F0C419" points="357.1,27.9 365.7,16.6 371.2,26 "/>
<polygon fill="#F0C419" points="363.1,33.9 364.9,19.8 374.4,25.2 "/>
<polygon fill="#F0C419" points="371.3,36.1 365.8,23 376.7,23 "/>
<polygon fill="#F0C419" points="379.5,33.8 368.2,25.3 377.6,19.8 "/>
<polygon fill="#F0C419" points="385.5,27.8 371.4,26.1 376.8,16.6 "/>
<polygon fill="#F0C419" points="387.7,19.6 374.6,25.2 374.6,14.2 "/>
<polygon fill="#F0C419" points="385.4,11.4 376.9,22.8 371.4,13.3 "/>
<polygon fill="#F0C419" points="379.4,5.4 377.7,19.6 368.2,14.1 "/>
<polygon opacity="0.3" fill="#F0C419"  a:adobe-blending-mode="overlay" points="371.4,37.7 363.7,19.7 378.8,19.7 "/>
<polygon opacity="0.3" fill="#F0C419"  a:adobe-blending-mode="overlay" points="386.9,28.6 367.5,26.2 375,13.2 "/>
<polygon opacity="0.3" fill="#F0C419"  a:adobe-blending-mode="overlay" points="386.8,10.6 375,26.2 367.5,13.2 "/>
<polygon opacity="0.3" fill="#F0C419"  a:adobe-blending-mode="overlay" points="371.2,1.6 378.8,19.7 363.8,19.7 "/>
<polygon opacity="0.3" fill="#F0C419"  a:adobe-blending-mode="overlay" points="355.6,10.7 375,13.1 367.5,26.2 "/>
<polygon opacity="0.3" fill="#F0C419"  a:adobe-blending-mode="overlay" points="355.7,28.8 367.5,13.1 375,26.2 "/>
<polygon opacity="0.3" fill="#F0C419"  a:adobe-blending-mode="overlay" points="371.2,4.6 376.3,16.7 366.3,16.7 "/>
<polygon opacity="0.3" fill="#F0C419"  a:adobe-blending-mode="overlay" points="363.7,6.7 374.1,14.6 365.4,19.6 "/>
<polygon opacity="0.3" fill="#F0C419"  a:adobe-blending-mode="overlay" points="358.2,12.2 371.2,13.8 366.2,22.5 "/>
<polygon opacity="0.3" fill="#F0C419"  a:adobe-blending-mode="overlay" points="356.2,19.7 368.3,14.6 368.3,24.7 "/>
<polygon opacity="0.3" fill="#F0C419"  a:adobe-blending-mode="overlay" points="358.3,27.2 366.1,16.8 371.2,25.5 "/>
<polygon opacity="0.3" fill="#F0C419"  a:adobe-blending-mode="overlay" points="363.8,32.7 365.4,19.8 374.1,24.8 "/>
<polygon opacity="0.3" fill="#F0C419"  a:adobe-blending-mode="overlay" points="371.3,34.7 366.2,22.7 376.3,22.7 "/>
<polygon opacity="0.3" fill="#F0C419"  a:adobe-blending-mode="overlay" points="378.8,32.7 368.4,24.8 377.1,19.8 "/>
<polygon opacity="0.3" fill="#F0C419"  a:adobe-blending-mode="overlay" points="384.3,27.1 371.4,25.5 376.4,16.8 "/>
<polygon opacity="0.3" fill="#F0C419"  a:adobe-blending-mode="overlay" points="386.3,19.6 374.3,24.7 374.3,14.7 "/>
<polygon opacity="0.3" fill="#F0C419"  a:adobe-blending-mode="overlay" points="384.3,12.1 376.4,22.5 371.4,13.8 "/>
<polygon opacity="0.3" fill="#F0C419"  a:adobe-blending-mode="overlay" points="378.7,6.6 377.1,19.6 368.4,14.6 "/>
<circle fill="#F0C419" cx="371.3" cy="19.7" r="11.5"/>
<circle opacity="0.3" fill="#F0C419" stroke="#FFFFFF"  a:adobe-blending-mode="overlay" cx="371.3" cy="19.7" r="10"/>
<polygon fill="#F0C419" points="433.8,170.8 417,141.1 443,138 "/>
<polygon fill="#F0C419" points="459,151.9 424.8,151.6 435.2,127.5 "/>
<polygon fill="#F0C419" points="455.2,120.7 437.9,150.1 422.2,129 "/>
<polygon fill="#F0C419" points="426.2,108.3 443.1,138 417,141.1 "/>
<polygon fill="#F0C419" points="401.1,127.2 435.3,127.5 424.8,151.6 "/>
<polygon fill="#F0C419" points="404.9,158.5 422.2,129 437.8,150.1 "/>
<polygon fill="#F0C419" points="426.9,113.5 438.1,133.3 420.8,135.4 "/>
<polygon fill="#F0C419" points="414.3,118.6 434,130.1 419.9,140.6 "/>
<polygon fill="#F0C419" points="405.9,129.3 428.7,129.4 421.8,145.5 "/>
<polygon fill="#F0C419" points="404,142.7 423.8,131.4 425.8,148.8 "/>
<polygon fill="#F0C419" points="409.1,155.3 420.6,135.6 431,149.7 "/>
<polygon fill="#F0C419" points="419.7,163.7 419.9,140.9 436,147.8 "/>
<polygon fill="#F0C419" points="433.2,165.6 421.9,145.8 439.3,143.8 "/>
<polygon fill="#F0C419" points="445.7,160.5 426.1,149 440.2,138.6 "/>
<polygon fill="#F0C419" points="454.1,149.9 431.4,149.7 438.3,133.6 "/>
<polygon fill="#F0C419" points="456,136.4 436.2,147.7 434.2,130.3 "/>
<polygon fill="#F0C419" points="451,123.8 439.5,143.5 429,129.4 "/>
<polygon fill="#F0C419" points="440.3,115.5 440.2,138.2 424.1,131.3 "/>
<polygon opacity="0.3" fill="#F0C419"  a:adobe-blending-mode="overlay" points="433.5,168.2 418.1,140.9 442,138.2 "/>
<polygon opacity="0.3" fill="#F0C419"  a:adobe-blending-mode="overlay" points="456.6,150.8 425.2,150.6 434.8,128.5 "/>
<polygon opacity="0.3" fill="#F0C419"  a:adobe-blending-mode="overlay" points="453.1,122.2 437.2,149.2 422.9,129.9 "/>
<polygon opacity="0.3" fill="#F0C419"  a:adobe-blending-mode="overlay" points="426.5,110.9 442,138.2 418.1,140.9 "/>
<polygon opacity="0.3" fill="#F0C419"  a:adobe-blending-mode="overlay" points="403.5,128.3 434.8,128.5 425.3,150.6 "/>
<polygon opacity="0.3" fill="#F0C419"  a:adobe-blending-mode="overlay" points="407,156.9 422.8,129.9 437.2,149.2 "/>
<polygon opacity="0.3" fill="#F0C419"  a:adobe-blending-mode="overlay" points="427.2,115.7 437.5,133.9 421.5,135.7 "/>
<polygon opacity="0.3" fill="#F0C419"  a:adobe-blending-mode="overlay" points="415.6,120.3 433.6,130.9 420.8,140.5 "/>
<polygon opacity="0.3" fill="#F0C419"  a:adobe-blending-mode="overlay" points="407.9,130.1 428.8,130.3 422.4,145 "/>
<polygon opacity="0.3" fill="#F0C419"  a:adobe-blending-mode="overlay" points="406.2,142.4 424.3,132.1 426.2,148.1 "/>
<polygon opacity="0.3" fill="#F0C419"  a:adobe-blending-mode="overlay" points="410.8,154 421.4,136 430.9,148.8 "/>
<polygon opacity="0.3" fill="#F0C419"  a:adobe-blending-mode="overlay" points="420.6,161.6 420.7,140.8 435.5,147.1 "/>
<polygon opacity="0.3" fill="#F0C419"  a:adobe-blending-mode="overlay" points="432.9,163.4 422.6,145.3 438.5,143.4 "/>
<polygon opacity="0.3" fill="#F0C419"  a:adobe-blending-mode="overlay" points="444.4,158.8 426.4,148.2 439.3,138.6 "/>
<polygon opacity="0.3" fill="#F0C419"  a:adobe-blending-mode="overlay" points="452.1,149 431.2,148.9 437.6,134.1 "/>
<polygon opacity="0.3" fill="#F0C419"  a:adobe-blending-mode="overlay" points="453.9,136.7 435.7,147 433.9,131.1 "/>
<polygon opacity="0.3" fill="#F0C419"  a:adobe-blending-mode="overlay" points="449.3,125.1 438.7,143.2 429.1,130.3 "/>
<polygon opacity="0.3" fill="#F0C419"  a:adobe-blending-mode="overlay" points="439.5,117.5 439.3,138.3 424.6,132 "/>
<circle fill="#F0C419" cx="430" cy="139.6" r="18.3"/>
<circle opacity="0.3" fill="#F0C419" stroke="#FFFFFF"  a:adobe-blending-mode="overlay" cx="430" cy="139.6" r="16"/>
<polygon fill="#F0C419" points="225.7,64.2 221.6,54.4 229.8,54.4 "/>
<polygon fill="#F0C419" points="234.2,59.3 223.6,57.9 227.7,50.8 "/>
<polygon fill="#F0C419" points="234.2,49.4 227.7,57.9 223.6,50.8 "/>
<polygon fill="#F0C419" points="225.6,44.5 229.8,54.4 221.6,54.4 "/>
<polygon fill="#F0C419" points="217.1,49.5 227.7,50.8 223.6,57.9 "/>
<polygon fill="#F0C419" points="217.2,59.4 223.6,50.8 227.7,57.9 "/>
<polygon fill="#F0C419" points="225.7,46.2 228.4,52.7 223,52.7 "/>
<polygon fill="#F0C419" points="221.6,47.3 227.2,51.6 222.5,54.3 "/>
<polygon fill="#F0C419" points="218.6,50.3 225.6,51.2 222.9,55.9 "/>
<polygon fill="#F0C419" points="217.5,54.4 224,51.6 224,57.1 "/>
<polygon fill="#F0C419" points="218.6,58.5 222.9,52.8 225.6,57.6 "/>
<polygon fill="#F0C419" points="221.6,61.5 222.5,54.4 227.2,57.2 "/>
<polygon fill="#F0C419" points="225.7,62.6 222.9,56 228.4,56 "/>
<polygon fill="#F0C419" points="229.8,61.5 224.1,57.2 228.9,54.4 "/>
<polygon fill="#F0C419" points="232.8,58.5 225.7,57.6 228.5,52.8 "/>
<polygon fill="#F0C419" points="233.9,54.3 227.3,57.1 227.3,51.7 "/>
<polygon fill="#F0C419" points="232.8,50.3 228.5,55.9 225.7,51.2 "/>
<polygon fill="#F0C419" points="229.8,47.3 228.9,54.3 224.1,51.6 "/>
<polygon opacity="0.3" fill="#F0C419"  a:adobe-blending-mode="overlay" points="225.7,63.4 221.9,54.4 229.4,54.4 "/>
<polygon opacity="0.3" fill="#F0C419"  a:adobe-blending-mode="overlay" points="233.5,58.8 223.8,57.6 227.6,51.1 "/>
<polygon opacity="0.3" fill="#F0C419"  a:adobe-blending-mode="overlay" points="233.5,49.8 227.6,57.6 223.8,51.1 "/>
<polygon opacity="0.3" fill="#F0C419"  a:adobe-blending-mode="overlay" points="225.6,45.4 229.5,54.4 221.9,54.4 "/>
<polygon opacity="0.3" fill="#F0C419"  a:adobe-blending-mode="overlay" points="217.8,49.9 227.6,51.1 223.8,57.6 "/>
<polygon opacity="0.3" fill="#F0C419"  a:adobe-blending-mode="overlay" points="217.9,58.9 223.8,51.1 227.6,57.6 "/>
<polygon opacity="0.3" fill="#F0C419"  a:adobe-blending-mode="overlay" points="225.7,46.9 228.2,52.9 223.2,52.9 "/>
<polygon opacity="0.3" fill="#F0C419"  a:adobe-blending-mode="overlay" points="221.9,47.9 227.1,51.8 222.8,54.3 "/>
<polygon opacity="0.3" fill="#F0C419"  a:adobe-blending-mode="overlay" points="219.2,50.7 225.6,51.4 223.1,55.8 "/>
<polygon opacity="0.3" fill="#F0C419"  a:adobe-blending-mode="overlay" points="218.2,54.4 224.2,51.9 224.2,56.9 "/>
<polygon opacity="0.3" fill="#F0C419"  a:adobe-blending-mode="overlay" points="219.2,58.2 223.1,53 225.6,57.3 "/>
<polygon opacity="0.3" fill="#F0C419"  a:adobe-blending-mode="overlay" points="222,60.9 222.8,54.4 227.1,56.9 "/>
<polygon opacity="0.3" fill="#F0C419"  a:adobe-blending-mode="overlay" points="225.7,61.9 223.2,55.9 228.2,55.9 "/>
<polygon opacity="0.3" fill="#F0C419"  a:adobe-blending-mode="overlay" points="229.5,60.9 224.3,56.9 228.6,54.4 "/>
<polygon opacity="0.3" fill="#F0C419"  a:adobe-blending-mode="overlay" points="232.2,58.1 225.7,57.3 228.2,53 "/>
<polygon opacity="0.3" fill="#F0C419"  a:adobe-blending-mode="overlay" points="233.2,54.3 227.2,56.9 227.2,51.9 "/>
<polygon opacity="0.3" fill="#F0C419"  a:adobe-blending-mode="overlay" points="232.2,50.6 228.2,55.8 225.7,51.5 "/>
<polygon opacity="0.3" fill="#F0C419"  a:adobe-blending-mode="overlay" points="229.4,47.9 228.6,54.3 224.3,51.8 "/>
<circle fill="#F0C419" cx="225.7" cy="54.4" r="5.7"/>
<circle opacity="0.3" fill="#F0C419" stroke="#FFFFFF"  a:adobe-blending-mode="overlay" cx="225.7" cy="54.4" r="5"/>
<polygon fill="#F0C419" points="326.6,130.1 321.3,117.6 331.8,117.6 "/>
<polygon fill="#F0C419" points="337.4,123.8 323.9,122.1 329.2,113 "/>
<polygon fill="#F0C419" points="337.4,111.2 329.2,122.1 323.9,113 "/>
<polygon fill="#F0C419" points="326.5,105 331.8,117.6 321.3,117.6 "/>
<polygon fill="#F0C419" points="315.7,111.4 329.2,113 323.9,122.1 "/>
<polygon fill="#F0C419" points="315.8,123.9 323.9,113 329.2,122.1 "/>
<polygon fill="#F0C419" points="326.5,107.1 330,115.5 323.1,115.5 "/>
<polygon fill="#F0C419" points="321.3,108.6 328.5,114 322.5,117.5 "/>
<polygon fill="#F0C419" points="317.5,112.4 326.5,113.5 323,119.5 "/>
<polygon fill="#F0C419" points="316.1,117.6 324.5,114.1 324.5,121 "/>
<polygon fill="#F0C419" points="317.5,122.8 323,115.6 326.5,121.6 "/>
<polygon fill="#F0C419" points="321.4,126.6 322.5,117.6 328.5,121.1 "/>
<polygon fill="#F0C419" points="326.6,128 323.1,119.6 330,119.6 "/>
<polygon fill="#F0C419" points="331.8,126.6 324.6,121.1 330.6,117.6 "/>
<polygon fill="#F0C419" points="335.6,122.7 326.6,121.6 330.1,115.6 "/>
<polygon fill="#F0C419" points="337,117.5 328.6,121.1 328.6,114.1 "/>
<polygon fill="#F0C419" points="335.6,112.3 330.1,119.5 326.6,113.5 "/>
<polygon fill="#F0C419" points="331.7,108.5 330.6,117.5 324.6,114 "/>
<polygon opacity="0.3" fill="#F0C419"  a:adobe-blending-mode="overlay" points="326.6,129 321.8,117.6 331.3,117.6 "/>
<polygon opacity="0.3" fill="#F0C419"  a:adobe-blending-mode="overlay" points="336.5,123.2 324.2,121.7 328.9,113.4 "/>
<polygon opacity="0.3" fill="#F0C419"  a:adobe-blending-mode="overlay" points="336.5,111.8 329,121.7 324.2,113.4 "/>
<polygon opacity="0.3" fill="#F0C419"  a:adobe-blending-mode="overlay" points="326.5,106.1 331.4,117.6 321.8,117.6 "/>
<polygon opacity="0.3" fill="#F0C419"  a:adobe-blending-mode="overlay" points="316.6,111.9 329,113.4 324.2,121.7 "/>
<polygon opacity="0.3" fill="#F0C419"  a:adobe-blending-mode="overlay" points="316.7,123.4 324.2,113.4 328.9,121.7 "/>
<polygon opacity="0.3" fill="#F0C419"  a:adobe-blending-mode="overlay" points="326.5,108 329.8,115.7 323.4,115.7 "/>
<polygon opacity="0.3" fill="#F0C419"  a:adobe-blending-mode="overlay" points="321.7,109.3 328.4,114.3 322.8,117.5 "/>
<polygon opacity="0.3" fill="#F0C419"  a:adobe-blending-mode="overlay" points="318.3,112.8 326.5,113.8 323.3,119.4 "/>
<polygon opacity="0.3" fill="#F0C419"  a:adobe-blending-mode="overlay" points="317,117.6 324.6,114.4 324.6,120.7 "/>
<polygon opacity="0.3" fill="#F0C419"  a:adobe-blending-mode="overlay" points="318.3,122.4 323.3,115.7 326.5,121.3 "/>
<polygon opacity="0.3" fill="#F0C419"  a:adobe-blending-mode="overlay" points="321.8,125.9 322.8,117.6 328.4,120.8 "/>
<polygon opacity="0.3" fill="#F0C419"  a:adobe-blending-mode="overlay" points="326.6,127.1 323.3,119.5 329.7,119.5 "/>
<polygon opacity="0.3" fill="#F0C419"  a:adobe-blending-mode="overlay" points="331.4,125.8 324.7,120.8 330.3,117.6 "/>
<polygon opacity="0.3" fill="#F0C419"  a:adobe-blending-mode="overlay" points="334.9,122.3 326.6,121.3 329.8,115.8 "/>
<polygon opacity="0.3" fill="#F0C419"  a:adobe-blending-mode="overlay" points="336.1,117.5 328.5,120.8 328.5,114.4 "/>
<polygon opacity="0.3" fill="#F0C419"  a:adobe-blending-mode="overlay" points="334.8,112.7 329.8,119.4 326.6,113.9 "/>
<polygon opacity="0.3" fill="#F0C419"  a:adobe-blending-mode="overlay" points="331.3,109.3 330.3,117.5 324.8,114.3 "/>
<circle fill="#F0C419" cx="326.6" cy="117.6" r="7.3"/>
<circle opacity="0.3" fill="#F0C419" stroke="#FFFFFF"  a:adobe-blending-mode="overlay" cx="326.6" cy="117.6" r="6.4"/>
<polygon fill="#F0C419" points="71.4,94.1 58.6,63.9 83.8,63.9 "/>
<polygon fill="#F0C419" points="97.5,78.8 64.9,74.8 77.5,52.9 "/>
<polygon fill="#F0C419" points="97.3,48.6 77.5,74.8 64.9,52.9 "/>
<polygon fill="#F0C419" points="71,33.6 83.9,63.9 58.6,63.9 "/>
<polygon fill="#F0C419" points="44.9,48.9 77.5,52.9 64.9,74.8 "/>
<polygon fill="#F0C419" points="45.1,79.1 64.9,52.9 77.5,74.8 "/>
<polygon fill="#F0C419" points="71.1,38.6 79.7,58.8 62.8,58.8 "/>
<polygon fill="#F0C419" points="58.5,42.1 76,55.3 61.4,63.7 "/>
<polygon fill="#F0C419" points="49.3,51.3 71.1,54 62.6,68.6 "/>
<polygon fill="#F0C419" points="46,64 66.2,55.4 66.2,72.2 "/>
<polygon fill="#F0C419" points="49.4,76.6 62.6,59.1 71,73.6 "/>
<polygon fill="#F0C419" points="58.7,85.7 61.4,64 76,72.4 "/>
<polygon fill="#F0C419" points="71.3,89.1 62.8,68.9 79.6,68.9 "/>
<polygon fill="#F0C419" points="83.9,85.6 66.4,72.4 81,64 "/>
<polygon fill="#F0C419" points="93.1,76.4 71.4,73.7 79.8,59.1 "/>
<polygon fill="#F0C419" points="96.4,63.7 76.3,72.3 76.3,55.5 "/>
<polygon fill="#F0C419" points="93,51.1 79.8,68.6 71.4,54.1 "/>
<polygon fill="#F0C419" points="83.7,42 81.1,63.7 66.5,55.3 "/>
<polygon opacity="0.3" fill="#F0C419"  a:adobe-blending-mode="overlay" points="71.4,91.6 59.6,63.9 82.8,63.9 "/>
<polygon opacity="0.3" fill="#F0C419"  a:adobe-blending-mode="overlay" points="95.3,77.6 65.4,73.9 77,53.8 "/>
<polygon opacity="0.3" fill="#F0C419"  a:adobe-blending-mode="overlay" points="95.2,49.8 77,73.9 65.4,53.8 "/>
<polygon opacity="0.3" fill="#F0C419"  a:adobe-blending-mode="overlay" points="71.1,36.1 82.8,63.9 59.7,63.9 "/>
<polygon opacity="0.3" fill="#F0C419"  a:adobe-blending-mode="overlay" points="47.1,50.1 77,53.8 65.4,73.9 "/>
<polygon opacity="0.3" fill="#F0C419"  a:adobe-blending-mode="overlay" points="47.3,77.9 65.4,53.8 77,73.9 "/>
<polygon opacity="0.3" fill="#F0C419"  a:adobe-blending-mode="overlay" points="71.1,40.7 79,59.2 63.5,59.2 "/>
<polygon opacity="0.3" fill="#F0C419"  a:adobe-blending-mode="overlay" points="59.6,43.9 75.6,56 62.2,63.7 "/>
<polygon opacity="0.3" fill="#F0C419"  a:adobe-blending-mode="overlay" points="51.1,52.4 71.1,54.8 63.4,68.2 "/>
<polygon opacity="0.3" fill="#F0C419"  a:adobe-blending-mode="overlay" points="48.1,64 66.6,56.1 66.6,71.5 "/>
<polygon opacity="0.3" fill="#F0C419"  a:adobe-blending-mode="overlay" points="51.2,75.5 63.3,59.5 71.1,72.8 "/>
<polygon opacity="0.3" fill="#F0C419"  a:adobe-blending-mode="overlay" points="59.7,83.9 62.2,64 75.6,71.7 "/>
<polygon opacity="0.3" fill="#F0C419"  a:adobe-blending-mode="overlay" points="71.3,87 63.5,68.5 78.9,68.5 "/>
<polygon opacity="0.3" fill="#F0C419"  a:adobe-blending-mode="overlay" points="82.9,83.8 66.8,71.7 80.2,64 "/>
<polygon opacity="0.3" fill="#F0C419"  a:adobe-blending-mode="overlay" points="91.3,75.3 71.3,72.9 79.1,59.5 "/>
<polygon opacity="0.3" fill="#F0C419"  a:adobe-blending-mode="overlay" points="94.3,63.8 75.8,71.6 75.8,56.2 "/>
<polygon opacity="0.3" fill="#F0C419"  a:adobe-blending-mode="overlay" points="91.2,52.2 79.1,68.2 71.4,54.9 "/>
<polygon opacity="0.3" fill="#F0C419"  a:adobe-blending-mode="overlay" points="82.7,43.8 80.2,63.7 66.9,56 "/>
<circle fill="#F0C419" cx="71.2" cy="63.9" r="17.7"/>
<circle opacity="0.3" fill="#F0C419" stroke="#FFFFFF"  a:adobe-blending-mode="overlay" cx="71.2" cy="63.9" r="15.4"/>
<polygon fill="#F0C419" points="123.8,243.2 111.9,215.3 135.2,215.3 "/>
<polygon fill="#F0C419" points="147.8,229.1 117.8,225.4 129.4,205.3 "/>
<polygon fill="#F0C419" points="147.7,201.2 129.4,225.4 117.8,205.3 "/>
<polygon fill="#F0C419" points="123.4,187.4 135.3,215.3 112,215.3 "/>
<polygon fill="#F0C419" points="99.4,201.5 129.4,205.2 117.8,225.4 "/>
<polygon fill="#F0C419" points="99.5,229.4 117.8,205.2 129.4,225.4 "/>
<polygon fill="#F0C419" points="123.5,192.1 131.4,210.7 115.9,210.7 "/>
<polygon fill="#F0C419" points="111.9,195.2 128,207.4 114.6,215.2 "/>
<polygon fill="#F0C419" points="103.4,203.8 123.5,206.3 115.7,219.7 "/>
<polygon fill="#F0C419" points="100.3,215.4 118.9,207.5 118.9,223.1 "/>
<polygon fill="#F0C419" points="103.5,227 115.7,210.9 123.4,224.4 "/>
<polygon fill="#F0C419" points="112.1,235.5 114.5,215.5 128,223.2 "/>
<polygon fill="#F0C419" points="123.7,238.6 115.8,220 131.3,220 "/>
<polygon fill="#F0C419" points="135.3,235.4 119.2,223.2 132.6,215.5 "/>
<polygon fill="#F0C419" points="143.8,226.9 123.7,224.4 131.5,211 "/>
<polygon fill="#F0C419" points="146.8,215.2 128.2,223.1 128.2,207.6 "/>
<polygon fill="#F0C419" points="143.7,203.6 131.5,219.7 123.7,206.3 "/>
<polygon fill="#F0C419" points="135.1,195.1 132.7,215.2 119.2,207.4 "/>
<polygon opacity="0.3" fill="#F0C419"  a:adobe-blending-mode="overlay" points="123.7,240.9 112.9,215.3 134.2,215.3 "/>
<polygon opacity="0.3" fill="#F0C419"  a:adobe-blending-mode="overlay" points="145.8,228 118.2,224.6 128.9,206.1 "/>
<polygon opacity="0.3" fill="#F0C419"  a:adobe-blending-mode="overlay" points="145.7,202.4 128.9,224.6 118.3,206.1 "/>
<polygon opacity="0.3" fill="#F0C419"  a:adobe-blending-mode="overlay" points="123.4,189.8 134.3,215.3 112.9,215.3 "/>
<polygon opacity="0.3" fill="#F0C419"  a:adobe-blending-mode="overlay" points="101.4,202.7 128.9,206.1 118.3,224.6 "/>
<polygon opacity="0.3" fill="#F0C419"  a:adobe-blending-mode="overlay" points="101.5,228.2 118.2,206.1 128.9,224.5 "/>
<polygon opacity="0.3" fill="#F0C419"  a:adobe-blending-mode="overlay" points="123.5,194 130.7,211.1 116.5,211.1 "/>
<polygon opacity="0.3" fill="#F0C419"  a:adobe-blending-mode="overlay" points="112.9,196.9 127.6,208.1 115.3,215.2 "/>
<polygon opacity="0.3" fill="#F0C419"  a:adobe-blending-mode="overlay" points="105.1,204.8 123.5,207 116.4,219.3 "/>
<polygon opacity="0.3" fill="#F0C419"  a:adobe-blending-mode="overlay" points="102.3,215.4 119.3,208.2 119.3,222.4 "/>
<polygon opacity="0.3" fill="#F0C419"  a:adobe-blending-mode="overlay" points="105.2,226.1 116.3,211.3 123.4,223.6 "/>
<polygon opacity="0.3" fill="#F0C419"  a:adobe-blending-mode="overlay" points="113,233.8 115.3,215.4 127.6,222.6 "/>
<polygon opacity="0.3" fill="#F0C419"  a:adobe-blending-mode="overlay" points="123.7,236.6 116.4,219.6 130.7,219.6 "/>
<polygon opacity="0.3" fill="#F0C419"  a:adobe-blending-mode="overlay" points="134.3,233.7 119.5,222.6 131.9,215.5 "/>
<polygon opacity="0.3" fill="#F0C419"  a:adobe-blending-mode="overlay" points="142.1,225.9 123.7,223.6 130.8,211.3 "/>
<polygon opacity="0.3" fill="#F0C419"  a:adobe-blending-mode="overlay" points="144.9,215.2 127.9,222.5 127.9,208.2 "/>
<polygon opacity="0.3" fill="#F0C419"  a:adobe-blending-mode="overlay" points="142,204.6 130.9,219.4 123.7,207.1 "/>
<polygon opacity="0.3" fill="#F0C419"  a:adobe-blending-mode="overlay" points="134.2,196.8 131.9,215.2 119.6,208.1 "/>
<circle fill="#F0C419" cx="123.6" cy="215.3" r="16.3"/>
<circle opacity="0.3" fill="#F0C419" stroke="#FFFFFF"  a:adobe-blending-mode="overlay" cx="123.6" cy="215.3" r="14.2"/>
<polygon fill="#F0C419" points="109.2,148.8 103.9,136.3 114.3,136.3 "/>
<polygon fill="#F0C419" points="120,142.5 106.5,140.8 111.7,131.8 "/>
<polygon fill="#F0C419" points="119.9,130 111.7,140.8 106.5,131.8 "/>
<polygon fill="#F0C419" points="109,123.8 114.4,136.3 103.9,136.3 "/>
<polygon fill="#F0C419" points="98.2,130.1 111.7,131.8 106.5,140.8 "/>
<polygon fill="#F0C419" points="98.3,142.6 106.5,131.8 111.7,140.8 "/>
<polygon fill="#F0C419" points="109.1,125.9 112.6,134.2 105.6,134.2 "/>
<polygon fill="#F0C419" points="103.9,127.3 111.1,132.8 105.1,136.2 "/>
<polygon fill="#F0C419" points="100.1,131.1 109.1,132.2 105.6,138.3 "/>
<polygon fill="#F0C419" points="98.7,136.3 107,132.8 107,139.8 "/>
<polygon fill="#F0C419" points="100.1,141.6 105.6,134.3 109,140.4 "/>
<polygon fill="#F0C419" points="103.9,145.4 105,136.4 111.1,139.8 "/>
<polygon fill="#F0C419" points="109.2,146.7 105.6,138.4 112.6,138.4 "/>
<polygon fill="#F0C419" points="114.4,145.3 107.1,139.9 113.2,136.4 "/>
<polygon fill="#F0C419" points="118.2,141.5 109.2,140.4 112.7,134.3 "/>
<polygon fill="#F0C419" points="119.5,136.3 111.2,139.8 111.2,132.8 "/>
<polygon fill="#F0C419" points="118.1,131.1 112.7,138.3 109.2,132.3 "/>
<polygon fill="#F0C419" points="114.3,127.2 113.2,136.2 107.2,132.8 "/>
<polygon opacity="0.3" fill="#F0C419"  a:adobe-blending-mode="overlay" points="109.2,147.8 104.3,136.3 113.9,136.3 "/>
<polygon opacity="0.3" fill="#F0C419"  a:adobe-blending-mode="overlay" points="119.1,142 106.7,140.5 111.5,132.2 "/>
<polygon opacity="0.3" fill="#F0C419"  a:adobe-blending-mode="overlay" points="119,130.5 111.5,140.5 106.7,132.2 "/>
<polygon opacity="0.3" fill="#F0C419"  a:adobe-blending-mode="overlay" points="109.1,124.8 113.9,136.3 104.3,136.3 "/>
<polygon opacity="0.3" fill="#F0C419"  a:adobe-blending-mode="overlay" points="99.1,130.6 111.5,132.1 106.7,140.4 "/>
<polygon opacity="0.3" fill="#F0C419"  a:adobe-blending-mode="overlay" points="99.2,142.1 106.7,132.1 111.5,140.4 "/>
<polygon opacity="0.3" fill="#F0C419"  a:adobe-blending-mode="overlay" points="109.1,126.7 112.3,134.4 105.9,134.4 "/>
<polygon opacity="0.3" fill="#F0C419"  a:adobe-blending-mode="overlay" points="104.3,128 110.9,133 105.4,136.2 "/>
<polygon opacity="0.3" fill="#F0C419"  a:adobe-blending-mode="overlay" points="100.8,131.6 109.1,132.6 105.9,138.1 "/>
<polygon opacity="0.3" fill="#F0C419"  a:adobe-blending-mode="overlay" points="99.6,136.3 107.2,133.1 107.2,139.5 "/>
<polygon opacity="0.3" fill="#F0C419"  a:adobe-blending-mode="overlay" points="100.9,141.1 105.9,134.5 109.1,140 "/>
<polygon opacity="0.3" fill="#F0C419"  a:adobe-blending-mode="overlay" points="104.4,144.6 105.4,136.4 110.9,139.6 "/>
<polygon opacity="0.3" fill="#F0C419"  a:adobe-blending-mode="overlay" points="109.2,145.9 105.9,138.2 112.3,138.2 "/>
<polygon opacity="0.3" fill="#F0C419"  a:adobe-blending-mode="overlay" points="113.9,144.6 107.3,139.6 112.8,136.4 "/>
<polygon opacity="0.3" fill="#F0C419"  a:adobe-blending-mode="overlay" points="117.4,141 109.2,140 112.4,134.5 "/>
<polygon opacity="0.3" fill="#F0C419"  a:adobe-blending-mode="overlay" points="118.7,136.3 111,139.5 111,133.1 "/>
<polygon opacity="0.3" fill="#F0C419"  a:adobe-blending-mode="overlay" points="117.4,131.5 112.4,138.1 109.2,132.6 "/>
<polygon opacity="0.3" fill="#F0C419"  a:adobe-blending-mode="overlay" points="113.9,128 112.8,136.3 107.3,133.1 "/>
<circle fill="#F0C419" cx="109.1" cy="136.3" r="7.3"/>
<circle opacity="0.3" fill="#F0C419" stroke="#FFFFFF"  a:adobe-blending-mode="overlay" cx="109.1" cy="136.3" r="6.4"/>
<path fill="#7F8C8D" d="M264.3,400c8.9,10,22.3,12.9,31,6.4l26.6-19.7c8.8-6.5,9.9-20.2,2.9-31.6L264.3,400z"/>
<polygon fill="#EDF0F1" points="261.7,331.3 292.7,373 317.7,354.4 "/>
<polygon fill="#BDC3C7" points="256.1,335.4 281.5,369.6 261,384.8 "/>
<rect x="273.5" y="327.7" transform="matrix(0.8027 -0.5964 0.5964 0.8027 -157.9581 234.7767)" fill="#7F8C8D" width="4.7" height="56.7"/>
<path fill="#7F8C8D" d="M429.4,207.3c0.9,8.7,6.9,15.5,14.1,15.4l21.8-0.3c7.2-0.1,13.1-7,13.7-15.8L429.4,207.3z"/>
<polygon fill="#EDF0F1" points="454.6,169.6 455.1,203.8 475.6,203.6 "/>
<polygon fill="#BDC3C7" points="450,169.6 450.4,197.7 433.6,197.9 "/>
<rect x="451" y="169.6" transform="matrix(0.9999 -1.347840e-002 1.347840e-002 0.9999 -2.4968 6.1168)" fill="#7F8C8D" width="3.1" height="37.4"/>
<path fill="#7F8C8D" d="M315.1,91c1.3,6.2,6.2,10.6,11.3,10l15.6-1.9c5.2-0.6,8.8-6,8.6-12.4L315.1,91z"/>
<polygon fill="#EDF0F1" points="330.2,61.9 333.2,86.5 347.9,84.7 "/>
<polygon fill="#BDC3C7" points="326.9,62.3 329.4,82.4 317.3,83.9 "/>
<rect x="329.1" y="62" transform="matrix(0.9927 -0.1209 0.1209 0.9927 -6.7074 40.4694)" fill="#7F8C8D" width="2.2" height="27"/>
<path fill="#7F8C8D" d="M100.4,62.4c1.4,14,11,24.7,22.6,24.6l34.8-0.5c11.5-0.2,20.9-11.2,21.9-25.2L100.4,62.4z"/>
<polygon fill="#EDF0F1" points="140.6,2.2 141.3,56.9 174.2,56.5 "/>
<polygon fill="#BDC3C7" points="133.3,2.3 133.9,47.1 107,47.4 "/>
<rect x="134.8" y="2.2" transform="matrix(0.9999 -1.344862e-002 1.344862e-002 0.9999 -0.4191 1.8499)" fill="#7F8C8D" width="5" height="59.7"/>
<path fill="#7F8C8D" d="M42.7,258.4c-0.8,6.1,2.3,11.6,7.2,12.7l14.8,3.2c4.9,1.1,10-2.7,11.8-8.6L42.7,258.4z"/>
<polygon fill="#EDF0F1" points="65.6,236.7 60.6,260 74.6,263.1 "/>
<polygon fill="#BDC3C7" points="62.5,236 58.4,255.1 46.9,252.6 "/>
<rect x="60.2" y="236.1" transform="matrix(0.9776 0.2107 -0.2107 0.9776 53.8546 -7.3297)" fill="#7F8C8D" width="2.2" height="26"/>
<path fill="#7F8C8D" d="M103.6,278c0.5,4.9,3.9,8.8,8,8.7l12.3-0.2c4.1-0.1,7.4-3.9,7.8-8.9L103.6,278z"/>
<polygon fill="#EDF0F1" points="117.8,256.7 118,276 129.6,275.9 "/>
<polygon fill="#BDC3C7" points="115.2,256.7 115.4,272.5 105.9,272.7 "/>
<rect x="115.7" y="256.7" transform="matrix(0.9999 -1.331735e-002 1.331735e-002 0.9999 -3.5487 1.5767)" fill="#7F8C8D" width="1.8" height="21.1"/>
<path fill="#7F8C8D" d="M430.9,264c1.4,3.4,4.7,5.5,7.6,4.5l8.8-2.7c2.9-0.9,4.5-4.4,3.7-8L430.9,264z"/>
<polygon fill="#EDF0F1" points="436.6,245.7 440.9,259.5 449.2,257 "/>
<polygon fill="#BDC3C7" points="434.8,246.3 438.3,257.6 431.5,259.7 "/>
<rect x="437.4" y="245.6" transform="matrix(0.9551 -0.2962 0.2962 0.9551 -55.4382 141.1017)" fill="#7F8C8D" width="1.3" height="15.8"/>
<circle fill="#E57E25" cx="424" cy="88.5" r="15"/>
<circle fill="#EDF0F1" cx="424" cy="88.5" r="13.8"/>
<path fill="#F29D1F" d="M423.7,87.2c0,0.2,0.2,0.4,0.4,0.4c0.2,0,0.4,0,0.6-0.2l5.7-7.8c0.3-0.4,0.4-0.8,0.3-1.2s-0.4-0.8-0.8-1
	c-1-0.5-2.1-1-3.3-1.2c-1.2-0.3-2.3-0.3-3.5-0.3c-0.4,0-0.8,0.2-1.1,0.6c-0.3,0.3-0.4,0.8-0.3,1.2L423.7,87.2z"/>
<path fill="#F29D1F" d="M422.7,88.1c0.2,0.1,0.4,0,0.6-0.2c0.2-0.2,0.2-0.4,0.1-0.6l-3.9-8.8c-0.2-0.4-0.5-0.7-0.9-0.8
	c-0.4-0.1-0.9-0.1-1.2,0.2c-1,0.6-1.9,1.3-2.7,2.2c-0.8,0.9-1.5,1.9-2,2.9c-0.2,0.4-0.2,0.9,0,1.3c0.2,0.4,0.5,0.7,0.9,0.9
	L422.7,88.1z"/>
<path fill="#F29D1F" d="M423,89.3c0.2-0.1,0.2-0.4,0.2-0.6c-0.1-0.2-0.3-0.4-0.5-0.4l-9.6-1c-0.4,0-0.9,0.1-1.2,0.4
	c-0.3,0.3-0.5,0.7-0.5,1.2c0,1.1,0.2,2.3,0.6,3.5c0.4,1.1,0.9,2.2,1.5,3.2c0.2,0.4,0.6,0.6,1.1,0.7c0.4,0.1,0.9-0.1,1.2-0.4
	L423,89.3z"/>
<path fill="#F29D1F" d="M424.2,89.7c0-0.2-0.2-0.4-0.4-0.4c-0.2,0-0.4,0-0.6,0.2l-5.7,7.8c-0.3,0.4-0.4,0.8-0.3,1.2
	c0.1,0.4,0.4,0.8,0.8,1c1,0.5,2.1,1,3.3,1.2c1.2,0.3,2.3,0.3,3.5,0.3c0.4,0,0.8-0.2,1.1-0.6c0.3-0.3,0.4-0.8,0.3-1.2L424.2,89.7z"/>
<path fill="#F29D1F" d="M425.2,88.9c-0.2-0.1-0.4,0-0.6,0.2c-0.2,0.2-0.2,0.4-0.1,0.6l3.9,8.8c0.2,0.4,0.5,0.7,0.9,0.8
	c0.4,0.1,0.9,0.1,1.2-0.2c1-0.6,1.9-1.3,2.7-2.2c0.8-0.9,1.5-1.9,2-2.9c0.2-0.4,0.2-0.9,0-1.3c-0.2-0.4-0.5-0.7-0.9-0.9L425.2,88.9z
	"/>
<path fill="#F29D1F" d="M424.9,87.6c-0.2,0.1-0.2,0.4-0.2,0.6c0.1,0.2,0.3,0.4,0.5,0.4l9.6,1c0.4,0,0.9-0.1,1.2-0.4
	c0.3-0.3,0.5-0.7,0.5-1.2c0-1.1-0.2-2.3-0.6-3.5c-0.4-1.1-0.9-2.2-1.5-3.2c-0.2-0.4-0.6-0.6-1.1-0.7s-0.9,0.1-1.2,0.4L424.9,87.6z"
	/>
<circle fill="#E57E25" cx="291.5" cy="32.8" r="9"/>
<circle fill="#EDF0F1" cx="291.5" cy="32.8" r="8.3"/>
<path fill="#F29D1F" d="M291.4,32.1c0,0.1,0.1,0.2,0.3,0.3c0.1,0,0.3,0,0.3-0.1l3.4-4.7c0.2-0.2,0.2-0.5,0.2-0.7s-0.2-0.5-0.5-0.6
	c-0.6-0.3-1.3-0.6-2-0.7c-0.7-0.2-1.4-0.2-2.1-0.2c-0.3,0-0.5,0.1-0.7,0.4c-0.2,0.2-0.2,0.5-0.2,0.7L291.4,32.1z"/>
<path fill="#F29D1F" d="M290.8,32.6c0.1,0,0.3,0,0.4-0.1c0.1-0.1,0.1-0.2,0.1-0.4l-2.3-5.3c-0.1-0.2-0.3-0.4-0.6-0.5
	c-0.3-0.1-0.5,0-0.7,0.1c-0.6,0.4-1.1,0.8-1.6,1.3s-0.9,1.1-1.2,1.7c-0.1,0.2-0.1,0.5,0,0.8c0.1,0.2,0.3,0.4,0.6,0.5L290.8,32.6z"/>
<path fill="#F29D1F" d="M290.9,33.3c0.1-0.1,0.1-0.2,0.1-0.4c0-0.1-0.2-0.2-0.3-0.2l-5.8-0.6c-0.3,0-0.5,0.1-0.7,0.2
	S284,32.8,284,33c0,0.7,0.1,1.4,0.4,2.1c0.2,0.7,0.5,1.3,0.9,1.9c0.1,0.2,0.4,0.4,0.6,0.4c0.3,0,0.5,0,0.7-0.2L290.9,33.3z"/>
<path fill="#F29D1F" d="M291.7,33.6c0-0.1-0.1-0.2-0.3-0.3c-0.1,0-0.3,0-0.3,0.1l-3.4,4.7c-0.2,0.2-0.2,0.5-0.2,0.7s0.2,0.5,0.5,0.6
	c0.6,0.3,1.3,0.6,2,0.7c0.7,0.2,1.4,0.2,2.1,0.2c0.3,0,0.5-0.1,0.7-0.4s0.2-0.5,0.2-0.7L291.7,33.6z"/>
<path fill="#F29D1F" d="M292.2,33.1c-0.1,0-0.3,0-0.4,0.1c-0.1,0.1-0.1,0.2-0.1,0.4l2.3,5.3c0.1,0.2,0.3,0.4,0.6,0.5
	c0.3,0.1,0.5,0,0.7-0.1c0.6-0.4,1.1-0.8,1.6-1.3c0.5-0.5,0.9-1.1,1.2-1.7c0.1-0.2,0.1-0.5,0-0.8c-0.1-0.2-0.3-0.4-0.6-0.5
	L292.2,33.1z"/>
<path fill="#F29D1F" d="M292.1,32.3c-0.1,0.1-0.1,0.2-0.1,0.4s0.2,0.2,0.3,0.2l5.8,0.6c0.3,0,0.5-0.1,0.7-0.2
	c0.2-0.2,0.3-0.4,0.3-0.7c0-0.7-0.1-1.4-0.4-2.1c-0.2-0.7-0.5-1.3-0.9-1.9c-0.1-0.2-0.4-0.4-0.6-0.4s-0.5,0-0.7,0.2L292.1,32.3z"/>
<circle fill="#E57E25" cx="367.8" cy="213.9" r="16.5"/>
<circle fill="#EDF0F1" cx="367.8" cy="213.9" r="15.2"/>
<path fill="#F29D1F" d="M367.5,212.6c0,0.2,0.2,0.4,0.5,0.5c0.2,0.1,0.5,0,0.6-0.2l6.3-8.6c0.3-0.4,0.4-0.9,0.3-1.4
	c-0.1-0.5-0.4-0.9-0.8-1.1c-1.1-0.6-2.3-1.1-3.6-1.3c-1.3-0.3-2.6-0.4-3.8-0.3c-0.5,0-0.9,0.3-1.2,0.7c-0.3,0.4-0.4,0.9-0.3,1.3
	L367.5,212.6z"/>
<path fill="#F29D1F" d="M366.5,213.5c0.2,0.1,0.5,0,0.7-0.2c0.2-0.2,0.2-0.4,0.1-0.7l-4.3-9.7c-0.2-0.4-0.6-0.8-1-0.9
	c-0.5-0.1-1-0.1-1.4,0.2c-1.1,0.7-2.1,1.5-3,2.5c-0.9,1-1.6,2.1-2.2,3.2c-0.2,0.4-0.2,0.9,0,1.4c0.2,0.4,0.6,0.8,1,0.9L366.5,213.5z
	"/>
<path fill="#F29D1F" d="M366.8,214.9c0.2-0.2,0.3-0.4,0.2-0.7c-0.1-0.2-0.3-0.4-0.5-0.4l-10.5-1.2c-0.5-0.1-1,0.1-1.3,0.4
	s-0.6,0.8-0.5,1.3c0,1.3,0.2,2.5,0.6,3.8c0.4,1.3,1,2.4,1.7,3.5c0.3,0.4,0.7,0.7,1.2,0.7c0.5,0.1,1-0.1,1.3-0.4L366.8,214.9z"/>
<path fill="#F29D1F" d="M368.1,215.3c0-0.2-0.2-0.4-0.5-0.5c-0.2-0.1-0.5,0-0.6,0.2l-6.3,8.6c-0.3,0.4-0.4,0.9-0.3,1.4
	s0.4,0.9,0.8,1.1c1.1,0.6,2.3,1.1,3.6,1.3s2.6,0.4,3.8,0.3c0.5,0,0.9-0.3,1.2-0.7c0.3-0.4,0.4-0.9,0.3-1.3L368.1,215.3z"/>
<path fill="#F29D1F" d="M369.1,214.4c-0.2-0.1-0.5,0-0.7,0.2c-0.2,0.2-0.2,0.4-0.1,0.7l4.3,9.7c0.2,0.4,0.6,0.8,1,0.9s1,0.1,1.4-0.2
	c1.1-0.7,2.1-1.5,3-2.5c0.9-1,1.6-2.1,2.2-3.2c0.2-0.4,0.2-0.9,0-1.4c-0.2-0.4-0.6-0.8-1-0.9L369.1,214.4z"/>
<path fill="#F29D1F" d="M368.8,213c-0.2,0.2-0.3,0.4-0.2,0.7c0.1,0.2,0.3,0.4,0.5,0.4l10.5,1.1c0.5,0.1,1-0.1,1.3-0.4
	c0.4-0.3,0.6-0.8,0.5-1.3c0-1.3-0.2-2.5-0.6-3.8c-0.4-1.3-1-2.4-1.7-3.5c-0.3-0.4-0.7-0.7-1.2-0.7c-0.5-0.1-1,0.1-1.3,0.4L368.8,213
	z"/>
<circle fill="#E57E25" cx="209.5" cy="128" r="11.5"/>
<circle fill="#EDF0F1" cx="209.5" cy="128" r="10.6"/>
<path fill="#F29D1F" d="M209.3,127c0,0.2,0.2,0.3,0.3,0.3c0.2,0,0.3,0,0.4-0.2l4.4-6c0.2-0.3,0.3-0.6,0.2-0.9
	c-0.1-0.3-0.3-0.6-0.6-0.8c-0.8-0.4-1.6-0.7-2.5-0.9c-0.9-0.2-1.8-0.3-2.7-0.2c-0.3,0-0.6,0.2-0.8,0.5s-0.3,0.6-0.2,0.9L209.3,127z"
	/>
<path fill="#F29D1F" d="M208.6,127.7c0.2,0.1,0.3,0,0.5-0.1s0.1-0.3,0.1-0.5l-3-6.8c-0.1-0.3-0.4-0.5-0.7-0.6
	c-0.3-0.1-0.7-0.1-1,0.1c-0.8,0.5-1.4,1-2.1,1.7c-0.6,0.7-1.1,1.4-1.5,2.2c-0.1,0.3-0.2,0.7,0,1c0.1,0.3,0.4,0.5,0.7,0.7
	L208.6,127.7z"/>
<path fill="#F29D1F" d="M208.8,128.6c0.1-0.1,0.2-0.3,0.1-0.5c-0.1-0.2-0.2-0.3-0.4-0.3l-7.4-0.8c-0.3,0-0.7,0.1-0.9,0.3
	s-0.4,0.6-0.4,0.9c0,0.9,0.2,1.8,0.5,2.7c0.3,0.9,0.7,1.7,1.2,2.4c0.2,0.3,0.5,0.5,0.8,0.5s0.7-0.1,0.9-0.3L208.8,128.6z"/>
<path fill="#F29D1F" d="M209.7,128.9c0-0.2-0.2-0.3-0.3-0.3c-0.2,0-0.3,0-0.4,0.2l-4.4,6c-0.2,0.3-0.3,0.6-0.2,0.9
	c0.1,0.3,0.3,0.6,0.6,0.8c0.8,0.4,1.6,0.7,2.5,0.9c0.9,0.2,1.8,0.3,2.7,0.2c0.3,0,0.6-0.2,0.8-0.5c0.2-0.3,0.3-0.6,0.2-0.9
	L209.7,128.9z"/>
<path fill="#F29D1F" d="M210.5,128.3c-0.2-0.1-0.3,0-0.5,0.1s-0.1,0.3-0.1,0.5l3,6.8c0.1,0.3,0.4,0.5,0.7,0.6c0.3,0.1,0.7,0.1,1-0.1
	c0.7-0.5,1.4-1,2.1-1.7c0.6-0.7,1.1-1.4,1.5-2.2c0.1-0.3,0.2-0.7,0-1c-0.1-0.3-0.4-0.5-0.7-0.7L210.5,128.3z"/>
<path fill="#F29D1F" d="M210.3,127.3c-0.1,0.1-0.2,0.3-0.1,0.5s0.2,0.3,0.4,0.3l7.4,0.8c0.3,0,0.7-0.1,0.9-0.3s0.4-0.6,0.4-0.9
	c0-0.9-0.2-1.8-0.5-2.7c-0.3-0.9-0.7-1.7-1.2-2.4c-0.2-0.3-0.5-0.5-0.8-0.5c-0.3,0-0.7,0.1-0.9,0.3L210.3,127.3z"/>
<circle fill="#E57E25" cx="16.2" cy="151.7" r="16.2"/>
<circle fill="#EDF0F1" cx="16.2" cy="151.7" r="14.8"/>
<path fill="#F29D1F" d="M15.9,150.3c0,0.2,0.2,0.4,0.5,0.5c0.2,0.1,0.5,0,0.6-0.2l6.1-8.4c0.3-0.4,0.4-0.9,0.3-1.3
	c-0.1-0.5-0.4-0.9-0.8-1.1c-1.1-0.6-2.3-1-3.5-1.3c-1.3-0.3-2.5-0.4-3.8-0.3c-0.5,0-0.9,0.3-1.2,0.6c-0.3,0.4-0.4,0.9-0.3,1.3
	L15.9,150.3z"/>
<path fill="#F29D1F" d="M14.9,151.2c0.2,0.1,0.5,0,0.6-0.2c0.2-0.2,0.2-0.4,0.1-0.7l-4.2-9.5c-0.2-0.4-0.6-0.8-1-0.9
	s-0.9-0.1-1.3,0.2c-1.1,0.6-2,1.4-2.9,2.4c-0.9,1-1.6,2-2.1,3.1c-0.2,0.4-0.2,0.9,0,1.4c0.2,0.4,0.5,0.8,1,0.9L14.9,151.2z"/>
<path fill="#F29D1F" d="M15.2,152.6c0.2-0.2,0.2-0.4,0.2-0.6c-0.1-0.2-0.3-0.4-0.5-0.4l-10.3-1.1c-0.5-0.1-0.9,0.1-1.3,0.4
	s-0.5,0.8-0.5,1.2c0,1.2,0.2,2.5,0.6,3.7c0.4,1.2,1,2.4,1.6,3.4c0.3,0.4,0.7,0.6,1.2,0.7c0.5,0.1,0.9-0.1,1.3-0.4L15.2,152.6z"/>
<path fill="#F29D1F" d="M16.5,153c0-0.2-0.2-0.4-0.5-0.5c-0.2-0.1-0.5,0-0.6,0.2l-6.1,8.4C9,161.5,8.9,162,9,162.5
	c0.1,0.5,0.4,0.9,0.8,1.1c1.1,0.6,2.3,1,3.5,1.3c1.3,0.3,2.5,0.4,3.8,0.3c0.5,0,0.9-0.3,1.2-0.6c0.3-0.4,0.4-0.9,0.3-1.3L16.5,153z"
	/>
<path fill="#F29D1F" d="M17.5,152.1c-0.2-0.1-0.5,0-0.6,0.2c-0.2,0.2-0.2,0.4-0.1,0.7l4.2,9.5c0.2,0.4,0.6,0.8,1,0.9
	c0.5,0.1,0.9,0.1,1.3-0.2c1.1-0.6,2-1.4,2.9-2.4c0.9-1,1.6-2,2.1-3.1c0.2-0.4,0.2-0.9,0-1.4c-0.2-0.4-0.5-0.8-1-0.9L17.5,152.1z"/>
<path fill="#F29D1F" d="M17.2,150.7c-0.2,0.2-0.2,0.4-0.2,0.6c0.1,0.2,0.3,0.4,0.5,0.4l10.3,1.1c0.5,0.1,0.9-0.1,1.3-0.4
	c0.3-0.3,0.5-0.8,0.5-1.2c0-1.2-0.2-2.5-0.6-3.7c-0.4-1.2-1-2.4-1.6-3.4c-0.3-0.4-0.7-0.6-1.2-0.7c-0.5-0.1-0.9,0.1-1.3,0.4
	L17.2,150.7z"/>
<circle fill="#E57E25" cx="137.8" cy="109.5" r="15.6"/>
<circle fill="#EDF0F1" cx="137.8" cy="109.5" r="14.3"/>
<path fill="#F29D1F" d="M137.5,108.2c0,0.2,0.2,0.4,0.5,0.5c0.2,0,0.5,0,0.6-0.2l5.9-8.1c0.3-0.4,0.4-0.8,0.3-1.3
	c-0.1-0.4-0.4-0.8-0.8-1c-1-0.6-2.2-1-3.4-1.3c-1.2-0.3-2.4-0.3-3.6-0.3c-0.5,0-0.9,0.3-1.1,0.6c-0.3,0.4-0.4,0.8-0.3,1.3
	L137.5,108.2z"/>
<path fill="#F29D1F" d="M136.5,109.1c0.2,0.1,0.5,0,0.6-0.2c0.2-0.2,0.2-0.4,0.1-0.6l-4-9.2c-0.2-0.4-0.5-0.7-1-0.9
	c-0.4-0.1-0.9-0.1-1.3,0.2c-1,0.6-2,1.4-2.8,2.3c-0.8,0.9-1.5,1.9-2,3c-0.2,0.4-0.2,0.9,0,1.3c0.2,0.4,0.5,0.7,1,0.9L136.5,109.1z"
	/>
<path fill="#F29D1F" d="M136.8,110.4c0.2-0.2,0.2-0.4,0.2-0.6c-0.1-0.2-0.3-0.4-0.5-0.4l-10-1.1c-0.5,0-0.9,0.1-1.2,0.4
	c-0.3,0.3-0.5,0.7-0.5,1.2c0,1.2,0.2,2.4,0.6,3.6c0.4,1.2,0.9,2.3,1.6,3.3c0.3,0.4,0.7,0.6,1.1,0.7c0.5,0.1,0.9-0.1,1.2-0.4
	L136.8,110.4z"/>
<path fill="#F29D1F" d="M138,110.8c0-0.2-0.2-0.4-0.5-0.5s-0.5,0-0.6,0.2l-5.9,8.1c-0.3,0.4-0.4,0.8-0.3,1.3c0.1,0.4,0.4,0.8,0.8,1
	c1,0.6,2.2,1,3.4,1.3c1.2,0.3,2.4,0.3,3.6,0.3c0.5,0,0.9-0.3,1.1-0.6c0.3-0.4,0.4-0.8,0.3-1.3L138,110.8z"/>
<path fill="#F29D1F" d="M139,109.9c-0.2-0.1-0.5,0-0.6,0.2c-0.2,0.2-0.2,0.4-0.1,0.6l4,9.2c0.2,0.4,0.5,0.7,1,0.9s0.9,0.1,1.3-0.2
	c1-0.6,2-1.4,2.8-2.3c0.8-0.9,1.5-1.9,2-3c0.2-0.4,0.2-0.9,0-1.3s-0.5-0.7-1-0.9L139,109.9z"/>
<path fill="#F29D1F" d="M138.7,108.6c-0.2,0.2-0.2,0.4-0.2,0.6c0.1,0.2,0.3,0.4,0.5,0.4l10,1.1c0.5,0,0.9-0.1,1.2-0.4
	c0.3-0.3,0.5-0.7,0.5-1.2c0-1.2-0.2-2.4-0.6-3.6c-0.4-1.2-0.9-2.3-1.6-3.3c-0.3-0.4-0.7-0.6-1.1-0.7c-0.5-0.1-0.9,0.1-1.2,0.4
	L138.7,108.6z"/>
<circle fill="#E57E25" cx="219" cy="383.3" r="11.9"/>
<circle fill="#EDF0F1" cx="219" cy="383.3" r="10.9"/>
<path fill="#F29D1F" d="M218.8,382.3c0,0.2,0.2,0.3,0.3,0.3c0.2,0,0.4,0,0.5-0.2l4.5-6.2c0.2-0.3,0.3-0.6,0.2-1
	c-0.1-0.3-0.3-0.6-0.6-0.8c-0.8-0.4-1.7-0.8-2.6-1c-0.9-0.2-1.9-0.3-2.8-0.2c-0.3,0-0.7,0.2-0.9,0.5c-0.2,0.3-0.3,0.6-0.2,1
	L218.8,382.3z"/>
<path fill="#F29D1F" d="M218.1,383c0.2,0.1,0.4,0,0.5-0.1c0.1-0.1,0.2-0.3,0.1-0.5l-3.1-7c-0.1-0.3-0.4-0.6-0.7-0.7
	c-0.3-0.1-0.7-0.1-1,0.1c-0.8,0.5-1.5,1.1-2.1,1.8c-0.6,0.7-1.2,1.5-1.6,2.3c-0.2,0.3-0.2,0.7,0,1c0.1,0.3,0.4,0.6,0.7,0.7
	L218.1,383z"/>
<path fill="#F29D1F" d="M218.3,384c0.1-0.1,0.2-0.3,0.1-0.5c-0.1-0.2-0.2-0.3-0.4-0.3l-7.6-0.8c-0.3,0-0.7,0.1-0.9,0.3
	c-0.3,0.2-0.4,0.6-0.4,0.9c0,0.9,0.2,1.8,0.5,2.7c0.3,0.9,0.7,1.7,1.2,2.5c0.2,0.3,0.5,0.5,0.8,0.5c0.3,0,0.7-0.1,1-0.3L218.3,384z"
	/>
<path fill="#F29D1F" d="M219.2,384.3c0-0.2-0.2-0.3-0.3-0.3c-0.2,0-0.4,0-0.5,0.2l-4.5,6.2c-0.2,0.3-0.3,0.6-0.2,1s0.3,0.6,0.6,0.8
	c0.8,0.4,1.7,0.8,2.6,1c0.9,0.2,1.9,0.3,2.8,0.2c0.3,0,0.7-0.2,0.9-0.5c0.2-0.3,0.3-0.6,0.2-1L219.2,384.3z"/>
<path fill="#F29D1F" d="M220,383.6c-0.2-0.1-0.4,0-0.5,0.1c-0.1,0.1-0.2,0.3-0.1,0.5l3.1,7c0.1,0.3,0.4,0.6,0.7,0.7s0.7,0.1,1-0.1
	c0.8-0.5,1.5-1.1,2.1-1.8c0.6-0.7,1.2-1.5,1.6-2.3c0.2-0.3,0.2-0.7,0-1c-0.1-0.3-0.4-0.6-0.7-0.7L220,383.6z"/>
<path fill="#F29D1F" d="M219.8,382.6c-0.1,0.1-0.2,0.3-0.1,0.5c0.1,0.2,0.2,0.3,0.4,0.3l7.6,0.8c0.3,0,0.7-0.1,0.9-0.3
	c0.3-0.2,0.4-0.6,0.4-0.9c0-0.9-0.2-1.8-0.5-2.7c-0.3-0.9-0.7-1.7-1.2-2.5c-0.2-0.3-0.5-0.5-0.8-0.5c-0.3,0-0.7,0.1-1,0.3
	L219.8,382.6z"/>
<circle fill="#E57E25" cx="116.1" cy="7.2" r="6"/>
<circle fill="#EDF0F1" cx="116.1" cy="7.2" r="5.5"/>
<path fill="#F29D1F" d="M115.9,6.7c0,0.1,0.1,0.2,0.2,0.2c0.1,0,0.2,0,0.2-0.1l2.3-3.1c0.1-0.1,0.1-0.3,0.1-0.5s-0.1-0.3-0.3-0.4
	c-0.4-0.2-0.8-0.4-1.3-0.5c-0.5-0.1-0.9-0.1-1.4-0.1c-0.2,0-0.3,0.1-0.4,0.2s-0.1,0.3-0.1,0.5L115.9,6.7z"/>
<path fill="#F29D1F" d="M115.6,7.1c0.1,0,0.2,0,0.2-0.1c0.1-0.1,0.1-0.2,0-0.2l-1.5-3.5c-0.1-0.2-0.2-0.3-0.4-0.3
	c-0.2-0.1-0.3,0-0.5,0.1c-0.4,0.2-0.7,0.5-1.1,0.9c-0.3,0.4-0.6,0.7-0.8,1.1c-0.1,0.2-0.1,0.3,0,0.5s0.2,0.3,0.4,0.3L115.6,7.1z"/>
<path fill="#F29D1F" d="M115.7,7.5c0.1-0.1,0.1-0.2,0.1-0.2s-0.1-0.1-0.2-0.2l-3.8-0.4c-0.2,0-0.3,0-0.5,0.2
	c-0.1,0.1-0.2,0.3-0.2,0.5c0,0.5,0.1,0.9,0.2,1.4c0.1,0.5,0.4,0.9,0.6,1.3c0.1,0.1,0.3,0.2,0.4,0.3c0.2,0,0.3,0,0.5-0.1L115.7,7.5z"
	/>
<path fill="#F29D1F" d="M116.2,7.7c0-0.1-0.1-0.2-0.2-0.2c-0.1,0-0.2,0-0.2,0.1l-2.3,3.1c-0.1,0.1-0.1,0.3-0.1,0.5
	c0,0.2,0.1,0.3,0.3,0.4c0.4,0.2,0.8,0.4,1.3,0.5c0.5,0.1,0.9,0.1,1.4,0.1c0.2,0,0.3-0.1,0.4-0.2c0.1-0.1,0.1-0.3,0.1-0.5L116.2,7.7z
	"/>
<path fill="#F29D1F" d="M116.5,7.4c-0.1,0-0.2,0-0.2,0.1c-0.1,0.1-0.1,0.2,0,0.2l1.5,3.5c0.1,0.2,0.2,0.3,0.4,0.3
	c0.2,0.1,0.3,0,0.5-0.1c0.4-0.2,0.7-0.5,1.1-0.9c0.3-0.4,0.6-0.7,0.8-1.1c0.1-0.2,0.1-0.3,0-0.5s-0.2-0.3-0.4-0.3L116.5,7.4z"/>
<path fill="#F29D1F" d="M116.4,6.9c-0.1,0.1-0.1,0.2-0.1,0.2c0,0.1,0.1,0.1,0.2,0.2l3.8,0.4c0.2,0,0.3,0,0.5-0.2
	c0.1-0.1,0.2-0.3,0.2-0.5c0-0.5-0.1-0.9-0.2-1.4c-0.1-0.5-0.4-0.9-0.6-1.3c-0.1-0.1-0.3-0.2-0.4-0.3s-0.3,0-0.5,0.1L116.4,6.9z"/>
<circle fill="#E57E25" cx="194.6" cy="297.8" r="6.1"/>
<circle fill="#EDF0F1" cx="194.6" cy="297.8" r="5.6"/>
<path fill="#F29D1F" d="M194.5,297.3c0,0.1,0.1,0.2,0.2,0.2c0.1,0,0.2,0,0.2-0.1l2.3-3.2c0.1-0.1,0.1-0.3,0.1-0.5
	c0-0.2-0.2-0.3-0.3-0.4c-0.4-0.2-0.9-0.4-1.3-0.5c-0.5-0.1-1-0.1-1.4-0.1c-0.2,0-0.3,0.1-0.4,0.2c-0.1,0.1-0.1,0.3-0.1,0.5
	L194.5,297.3z"/>
<path fill="#F29D1F" d="M194.1,297.6c0.1,0,0.2,0,0.2-0.1c0.1-0.1,0.1-0.2,0-0.2l-1.6-3.6c-0.1-0.2-0.2-0.3-0.4-0.3
	c-0.2-0.1-0.4,0-0.5,0.1c-0.4,0.2-0.8,0.5-1.1,0.9c-0.3,0.4-0.6,0.8-0.8,1.2c-0.1,0.2-0.1,0.3,0,0.5c0.1,0.2,0.2,0.3,0.4,0.3
	L194.1,297.6z"/>
<path fill="#F29D1F" d="M194.2,298.1c0.1-0.1,0.1-0.2,0.1-0.2s-0.1-0.1-0.2-0.2l-3.9-0.4c-0.2,0-0.4,0-0.5,0.2
	c-0.1,0.1-0.2,0.3-0.2,0.5c0,0.5,0.1,0.9,0.2,1.4c0.1,0.5,0.4,0.9,0.6,1.3c0.1,0.1,0.3,0.2,0.4,0.3c0.2,0,0.4,0,0.5-0.2L194.2,298.1
	z"/>
<path fill="#F29D1F" d="M194.7,298.3c0-0.1-0.1-0.2-0.2-0.2c-0.1,0-0.2,0-0.2,0.1l-2.3,3.2c-0.1,0.1-0.1,0.3-0.1,0.5
	c0,0.2,0.2,0.3,0.3,0.4c0.4,0.2,0.9,0.4,1.3,0.5c0.5,0.1,1,0.1,1.4,0.1c0.2,0,0.3-0.1,0.4-0.2s0.1-0.3,0.1-0.5L194.7,298.3z"/>
<path fill="#F29D1F" d="M195.1,297.9c-0.1,0-0.2,0-0.2,0.1c-0.1,0.1-0.1,0.2,0,0.2l1.6,3.6c0.1,0.2,0.2,0.3,0.4,0.3
	c0.2,0.1,0.4,0,0.5-0.1c0.4-0.2,0.8-0.5,1.1-0.9c0.3-0.4,0.6-0.8,0.8-1.2c0.1-0.2,0.1-0.3,0-0.5c-0.1-0.2-0.2-0.3-0.4-0.3
	L195.1,297.9z"/>
<path fill="#F29D1F" d="M195,297.4c-0.1,0.1-0.1,0.2-0.1,0.2s0.1,0.1,0.2,0.2l3.9,0.4c0.2,0,0.4,0,0.5-0.2c0.1-0.1,0.2-0.3,0.2-0.5
	c0-0.5-0.1-0.9-0.2-1.4c-0.1-0.5-0.4-0.9-0.6-1.3c-0.1-0.1-0.3-0.2-0.4-0.3c-0.2,0-0.4,0-0.5,0.2L195,297.4z"/>
<path fill="#FFFFFF" d="M230.9,246.3c-16.3,0-29.6,13.2-29.6,29.6c0,16.3,13.2,29.6,29.6,29.6c16.3,0,29.6-13.2,29.6-29.6
	C260.4,259.5,247.2,246.3,230.9,246.3z M230.9,293c-9.5,0-17.2-7.7-17.2-17.2s7.7-17.2,17.2-17.2c9.5,0,17.2,7.7,17.2,17.2
	S240.4,293,230.9,293z"/>
<path fill="#E64D3C" d="M219,248.7l4.9,11.3c2.1-0.9,4.5-1.5,6.9-1.5c2.4,0,4.6,0.5,6.7,1.3l4.8-11.4c-3.5-1.5-7.4-2.3-11.4-2.3
	C226.6,246.3,222.6,247.1,219,248.7z"/>
<path fill="#E64D3C" d="M203.8,287.7l11.3-4.9c-0.9-2.1-1.5-4.5-1.5-6.9c0-2.4,0.5-4.6,1.3-6.7l-11.4-4.8c-1.5,3.5-2.3,7.4-2.3,11.4
	C201.3,280,202.2,284,203.8,287.7z"/>
<path fill="#E64D3C" d="M242.7,302.9l-4.9-11.3c-2.1,0.9-4.5,1.5-6.9,1.5c-2.4,0-4.6-0.5-6.7-1.3l-4.8,11.4
	c3.5,1.5,7.4,2.3,11.4,2.3C235.1,305.4,239.1,304.5,242.7,302.9z"/>
<path fill="#E64D3C" d="M257.9,263.9l-11.3,4.9c0.9,2.1,1.5,4.5,1.5,6.9c0,2.4-0.5,4.6-1.3,6.7l11.4,4.8c1.5-3.5,2.3-7.4,2.3-11.4
	C260.4,271.6,259.5,267.6,257.9,263.9z"/>
<path opacity="0.1" fill="#EDF0F1" d="M230.9,246.3c-16.3,0-29.6,13.2-29.6,29.6c0,16.3,13.2,29.6,29.6,29.6
	c16.3,0,29.6-13.2,29.6-29.6C260.4,259.5,247.2,246.3,230.9,246.3z M230.9,298.8c-12.7,0-23-10.3-23-23s10.3-23,23-23
	c12.7,0,23,10.3,23,23S243.6,298.8,230.9,298.8z"/>
<path fill="#FFFFFF" d="M328.4,5.5c-13,0-23.6,10.6-23.6,23.6c0,13,10.6,23.6,23.6,23.6c13,0,23.6-10.6,23.6-23.6
	C352.1,16.1,341.5,5.5,328.4,5.5z M328.4,42.9c-7.6,0-13.8-6.2-13.8-13.8c0-7.6,6.2-13.8,13.8-13.8s13.8,6.2,13.8,13.8
	C342.2,36.8,336.1,42.9,328.4,42.9z"/>
<path fill="#E64D3C" d="M319,7.5l4,9c1.7-0.7,3.6-1.2,5.5-1.2c1.9,0,3.7,0.4,5.3,1.1l3.8-9.1c-2.8-1.2-5.9-1.8-9.1-1.8
	C325.1,5.5,321.9,6.3,319,7.5z"/>
<path fill="#E64D3C" d="M306.8,38.6l9-4c-0.7-1.7-1.2-3.6-1.2-5.5c0-1.9,0.4-3.7,1.1-5.3l-9.1-3.8c-1.2,2.8-1.8,5.9-1.8,9.1
	C304.8,32.5,305.6,35.7,306.8,38.6z"/>
<path fill="#E64D3C" d="M337.9,50.8l-4-9c-1.7,0.7-3.6,1.2-5.5,1.2c-1.9,0-3.7-0.4-5.3-1.1l-3.8,9.1c2.8,1.2,5.9,1.8,9.1,1.8
	C331.8,52.8,335,52,337.9,50.8z"/>
<path fill="#E64D3C" d="M350.1,19.7l-9,4c0.7,1.7,1.2,3.6,1.2,5.5c0,1.9-0.4,3.7-1.1,5.3l9.1,3.8c1.2-2.8,1.8-5.9,1.8-9.1
	C352.1,25.8,351.3,22.6,350.1,19.7z"/>
<path opacity="0.1" fill="#EDF0F1" d="M328.4,5.5c-13,0-23.6,10.6-23.6,23.6c0,13,10.6,23.6,23.6,23.6c13,0,23.6-10.6,23.6-23.6
	C352.1,16.1,341.5,5.5,328.4,5.5z M328.4,47.5c-10.1,0-18.4-8.2-18.4-18.4s8.2-18.4,18.4-18.4c10.1,0,18.4,8.2,18.4,18.4
	S338.6,47.5,328.4,47.5z"/>
<path fill="#FFFFFF" d="M476,145c-8.9,0-16.1,7.2-16.1,16.1s7.2,16.1,16.1,16.1c8.9,0,16.1-7.2,16.1-16.1S484.9,145,476,145z
	 M476,170.6c-5.2,0-9.4-4.2-9.4-9.4c0-5.2,4.2-9.4,9.4-9.4c5.2,0,9.4,4.2,9.4,9.4C485.4,166.4,481.2,170.6,476,170.6z"/>
<path fill="#E64D3C" d="M469.5,146.4l2.7,6.2c1.2-0.5,2.4-0.8,3.8-0.8c1.3,0,2.5,0.3,3.6,0.7l2.6-6.2c-1.9-0.8-4-1.3-6.2-1.3
	C473.7,145,471.5,145.5,469.5,146.4z"/>
<path fill="#E64D3C" d="M461.2,167.6l6.2-2.7c-0.5-1.2-0.8-2.4-0.8-3.8c0-1.3,0.3-2.5,0.7-3.6l-6.2-2.6c-0.8,1.9-1.3,4-1.3,6.2
	C459.9,163.5,460.3,165.7,461.2,167.6z"/>
<path fill="#E64D3C" d="M482.5,175.9l-2.7-6.2c-1.2,0.5-2.4,0.8-3.8,0.8c-1.3,0-2.5-0.3-3.6-0.7l-2.6,6.2c1.9,0.8,4,1.3,6.2,1.3
	C478.3,177.3,480.5,176.8,482.5,175.9z"/>
<path fill="#E64D3C" d="M490.8,154.7l-6.2,2.7c0.5,1.2,0.8,2.4,0.8,3.8c0,1.3-0.3,2.5-0.7,3.6l6.2,2.6c0.8-1.9,1.3-4,1.3-6.2
	C492.2,158.8,491.7,156.7,490.8,154.7z"/>
<path opacity="0.1" fill="#EDF0F1" d="M476,145c-8.9,0-16.1,7.2-16.1,16.1s7.2,16.1,16.1,16.1c8.9,0,16.1-7.2,16.1-16.1
	S484.9,145,476,145z M476,173.7c-6.9,0-12.6-5.6-12.6-12.6s5.6-12.6,12.6-12.6c6.9,0,12.6,5.6,12.6,12.6S482.9,173.7,476,173.7z"/>
<path fill="#FFFFFF" d="M354,340.9c-5.3,0-9.6,4.3-9.6,9.6s4.3,9.6,9.6,9.6c5.3,0,9.6-4.3,9.6-9.6S359.3,340.9,354,340.9z
	 M354,356.2c-3.1,0-5.6-2.5-5.6-5.6s2.5-5.6,5.6-5.6c3.1,0,5.6,2.5,5.6,5.6S357.1,356.2,354,356.2z"/>
<path fill="#E64D3C" d="M350.1,341.7l1.6,3.7c0.7-0.3,1.5-0.5,2.3-0.5c0.8,0,1.5,0.2,2.2,0.4l1.6-3.7c-1.1-0.5-2.4-0.7-3.7-0.7
	C352.6,340.9,351.3,341.2,350.1,341.7z"/>
<path fill="#E64D3C" d="M345.2,354.4l3.7-1.6c-0.3-0.7-0.5-1.5-0.5-2.3c0-0.8,0.2-1.5,0.4-2.2l-3.7-1.6c-0.5,1.1-0.7,2.4-0.7,3.7
	C344.4,351.9,344.7,353.2,345.2,354.4z"/>
<path fill="#E64D3C" d="M357.9,359.4l-1.6-3.7c-0.7,0.3-1.5,0.5-2.3,0.5c-0.8,0-1.5-0.2-2.2-0.4l-1.6,3.7c1.1,0.5,2.4,0.7,3.7,0.7
	C355.4,360.2,356.7,359.9,357.9,359.4z"/>
<path fill="#E64D3C" d="M362.9,346.7l-3.7,1.6c0.3,0.7,0.5,1.5,0.5,2.3c0,0.8-0.2,1.5-0.4,2.2l3.7,1.6c0.5-1.1,0.7-2.4,0.7-3.7
	C363.7,349.1,363.4,347.8,362.9,346.7z"/>
<path opacity="0.1" fill="#EDF0F1" d="M354,340.9c-5.3,0-9.6,4.3-9.6,9.6s4.3,9.6,9.6,9.6c5.3,0,9.6-4.3,9.6-9.6
	S359.3,340.9,354,340.9z M354,358c-4.1,0-7.5-3.4-7.5-7.5s3.4-7.5,7.5-7.5s7.5,3.4,7.5,7.5S358.2,358,354,358z"/>
<path fill="#FFFFFF" d="M93.4,9.9c-8.9,0-16.1,7.2-16.1,16.1c0,8.9,7.2,16.1,16.1,16.1c8.9,0,16.1-7.2,16.1-16.1
	C109.5,17.1,102.3,9.9,93.4,9.9z M93.4,35.4c-5.2,0-9.4-4.2-9.4-9.4c0-5.2,4.2-9.4,9.4-9.4c5.2,0,9.4,4.2,9.4,9.4
	C102.8,31.2,98.6,35.4,93.4,35.4z"/>
<path fill="#E64D3C" d="M86.9,11.2l2.7,6.2c1.2-0.5,2.4-0.8,3.8-0.8c1.3,0,2.5,0.3,3.6,0.7l2.6-6.2c-1.9-0.8-4-1.3-6.2-1.3
	C91.1,9.9,88.9,10.4,86.9,11.2z"/>
<path fill="#E64D3C" d="M78.6,32.5l6.2-2.7C84.3,28.6,84,27.4,84,26c0-1.3,0.3-2.5,0.7-3.6l-6.2-2.6c-0.8,1.9-1.3,4-1.3,6.2
	C77.2,28.3,77.7,30.5,78.6,32.5z"/>
<path fill="#E64D3C" d="M99.9,40.8l-2.7-6.2c-1.2,0.5-2.4,0.8-3.8,0.8c-1.3,0-2.5-0.3-3.6-0.7l-2.6,6.2c1.9,0.8,4,1.3,6.2,1.3
	C95.7,42.2,97.9,41.7,99.9,40.8z"/>
<path fill="#E64D3C" d="M108.2,19.5l-6.2,2.7c0.5,1.2,0.8,2.4,0.8,3.8c0,1.3-0.3,2.5-0.7,3.6l6.2,2.6c0.8-1.9,1.3-4,1.3-6.2
	C109.5,23.7,109,21.5,108.2,19.5z"/>
<path opacity="0.1" fill="#EDF0F1" d="M93.4,9.9c-8.9,0-16.1,7.2-16.1,16.1c0,8.9,7.2,16.1,16.1,16.1c8.9,0,16.1-7.2,16.1-16.1
	C109.5,17.1,102.3,9.9,93.4,9.9z M93.4,38.6c-6.9,0-12.6-5.6-12.6-12.6s5.6-12.6,12.6-12.6c6.9,0,12.6,5.6,12.6,12.6
	S100.3,38.6,93.4,38.6z"/>
<path fill="#FFFFFF" d="M246.1,128.4c-10.1,0-18.4,8.2-18.4,18.4c0,10.1,8.2,18.4,18.4,18.4c10.1,0,18.4-8.2,18.4-18.4
	C264.5,136.6,256.3,128.4,246.1,128.4z M246.1,157.5c-5.9,0-10.7-4.8-10.7-10.7c0-5.9,4.8-10.7,10.7-10.7s10.7,4.8,10.7,10.7
	C256.8,152.7,252.1,157.5,246.1,157.5z"/>
<path fill="#E64D3C" d="M238.8,130l3.1,7c1.3-0.6,2.8-0.9,4.3-0.9c1.5,0,2.9,0.3,4.1,0.8l3-7.1c-2.2-0.9-4.6-1.4-7.1-1.4
	C243.5,128.4,241,129,238.8,130z"/>
<path fill="#E64D3C" d="M229.3,154.1l7-3.1c-0.6-1.3-0.9-2.8-0.9-4.3c0-1.5,0.3-2.9,0.8-4.1l-7.1-3c-0.9,2.2-1.4,4.6-1.4,7.1
	C227.8,149.4,228.3,151.9,229.3,154.1z"/>
<path fill="#E64D3C" d="M253.5,163.6l-3.1-7c-1.3,0.6-2.8,0.9-4.3,0.9c-1.5,0-2.9-0.3-4.1-0.8l-3,7.1c2.2,0.9,4.6,1.4,7.1,1.4
	C248.8,165.1,251.3,164.6,253.5,163.6z"/>
<path fill="#E64D3C" d="M262.9,139.4l-7,3.1c0.6,1.3,0.9,2.8,0.9,4.3c0,1.5-0.3,2.9-0.8,4.1l7.1,3c0.9-2.2,1.4-4.6,1.4-7.1
	C264.5,144.2,263.9,141.7,262.9,139.4z"/>
<path opacity="0.1" fill="#EDF0F1" d="M246.1,128.4c-10.1,0-18.4,8.2-18.4,18.4c0,10.1,8.2,18.4,18.4,18.4
	c10.1,0,18.4-8.2,18.4-18.4C264.5,136.6,256.3,128.4,246.1,128.4z M246.1,161.1c-7.9,0-14.3-6.4-14.3-14.3c0-7.9,6.4-14.3,14.3-14.3
	c7.9,0,14.3,6.4,14.3,14.3C260.4,154.7,254,161.1,246.1,161.1z"/>
<path fill="#FFFFFF" d="M158.1,155.1c-4.1,1.9-5.9,6.7-4.1,10.9c1.9,4.1,6.7,5.9,10.9,4.1c4.1-1.9,5.9-6.7,4.1-10.9
	C167.1,155,162.2,153.2,158.1,155.1z M163.5,166.9c-2.4,1.1-5.2,0-6.3-2.4c-1.1-2.4,0-5.2,2.4-6.3c2.4-1.1,5.2,0,6.3,2.4
	C166.9,163,165.9,165.8,163.5,166.9z"/>
<path fill="#E64D3C" d="M155.4,157.1l2.5,2.3c0.4-0.5,1-0.9,1.6-1.2c0.6-0.3,1.2-0.4,1.8-0.4l-0.1-3.4c-1.1,0-2.1,0.3-3.1,0.7
	C157,155.6,156.1,156.3,155.4,157.1z"/>
<path fill="#E64D3C" d="M156,168.7l2.3-2.5c-0.5-0.4-0.9-1-1.2-1.6c-0.3-0.6-0.4-1.2-0.4-1.8l-3.4,0.1c0,1.1,0.3,2.1,0.7,3.1
	C154.5,167,155.2,167.9,156,168.7z"/>
<path fill="#E64D3C" d="M167.6,168l-2.5-2.3c-0.4,0.5-1,0.9-1.6,1.2c-0.6,0.3-1.2,0.4-1.8,0.4l0.1,3.4c1.1,0,2.1-0.3,3.1-0.7
	C166,169.5,166.9,168.9,167.6,168z"/>
<path fill="#E64D3C" d="M167,156.5l-2.3,2.5c0.5,0.4,0.9,1,1.2,1.6c0.3,0.6,0.4,1.2,0.4,1.8l3.4-0.1c0-1.1-0.3-2.1-0.7-3.1
	C168.5,158.1,167.8,157.2,167,156.5z"/>
<path opacity="0.1" fill="#EDF0F1" d="M158.1,155.1c-4.1,1.9-5.9,6.7-4.1,10.9c1.9,4.1,6.7,5.9,10.9,4.1c4.1-1.9,5.9-6.7,4.1-10.9
	C167.1,155,162.2,153.2,158.1,155.1z M164.1,168.4c-3.2,1.5-7,0-8.4-3.2c-1.5-3.2,0-7,3.2-8.4c3.2-1.5,7,0,8.4,3.2
	C168.8,163.1,167.3,166.9,164.1,168.4z"/>
<path fill="#FFFFFF" d="M333.3,216.8c-7.1-27.2-39.9-45.2-76.2-41c-36.3,4.2-64.2,29.1-64.9,57.2L333.3,216.8z"/>
<rect x="265.3" y="224.6" transform="matrix(0.9935 -0.1141 0.1141 0.9935 -29.5064 32.4095)" fill="#7F8C8D" width="6.2" height="98.8"/>
<path fill="#E64D3C" d="M229,228.8c24.6,14,40.9,11.7,67.5-7.8c-9.2-25.4-18.6-36.2-39.4-45.2C238.9,189.3,232.1,201.9,229,228.8z"
	/>
<path fill="#EDF0F1" d="M192.2,233c16.2,7.2,25.7,4.6,36.8-4.2c3.1-26.8,9.9-39.4,28.1-53C220.8,180,192.9,204.9,192.2,233z"/>
<path fill="#EDF0F1" d="M257.1,175.8c20.8,9,30.2,19.8,39.4,45.2c14.7,6.3,23.3,5.9,36.8-4.2C326.3,189.6,293.4,171.6,257.1,175.8z"
	/>
<circle fill="#FFFFFF" cx="257.1" cy="175.8" r="3.1"/>
<path fill="#FFFFFF" d="M478.1,91.6c4.5-7.4,1.5-18.6-7.3-25.8c-8.7-7.2-20.3-8-26.7-2.2L478.1,91.6z"/>
<rect x="450.5" y="74.1" transform="matrix(0.7721 0.6355 -0.6355 0.7721 159.7198 -266.4897)" fill="#7F8C8D" width="1.9" height="30.6"/>
<path fill="#E64D3C" d="M453,70.9c2.2,8.5,6.2,11.6,16.2,13.4c3.7-7.5,4.1-11.9,1.6-18.5C463.9,64.7,459.7,65.9,453,70.9z"/>
<path fill="#EDF0F1" d="M444.2,63.7c1.9,5.1,4.5,6.7,8.9,7.3c6.6-5.1,10.9-6.3,17.8-5.1C462.1,58.6,450.6,57.8,444.2,63.7z"/>
<path fill="#EDF0F1" d="M470.9,65.8c2.5,6.6,2.1,11-1.6,18.5c1.8,4.6,3.7,6.5,8.9,7.3C482.6,84.2,479.6,73,470.9,65.8z"/>
<circle fill="#FFFFFF" cx="470.9" cy="65.8" r="1"/>
<path fill="#FFFFFF" d="M426.9,294.5c0.2-5.8-5.3-11.3-12.8-12.6s-14.5,2.1-16.2,7.6L426.9,294.5z"/>
<rect x="410" y="291.9" transform="matrix(0.9858 0.1679 -0.1679 0.9858 56.5472 -64.6402)" fill="#7F8C8D" width="1.3" height="20.5"/>
<path fill="#E64D3C" d="M405.4,290.9c4.1,4.2,7.5,4.7,13.9,2.4c-0.4-5.6-1.6-8.3-5.2-11.3C409.7,283.6,407.6,285.7,405.4,290.9z"/>
<path fill="#EDF0F1" d="M397.8,289.6c2.8,2.4,4.8,2.4,7.6,1.3c2.2-5.2,4.3-7.3,8.7-8.9C406.6,280.7,399.6,284,397.8,289.6z"/>
<path fill="#EDF0F1" d="M414.1,282c3.6,3,4.9,5.7,5.2,11.3c2.6,2.1,4.3,2.5,7.6,1.3C427,288.7,421.5,283.2,414.1,282z"/>
<circle fill="#FFFFFF" cx="414.1" cy="282" r="0.6"/>
<path fill="#FFFFFF" d="M223.3,29.9c-4.4-7.6-15.8-10.3-26.3-6c-10.6,4.3-16.9,14.1-14.8,22.6L223.3,29.9z"/>
<rect x="207.5" y="37.1" transform="matrix(0.927 -0.3751 0.3751 0.927 -4.4905 82.0562)" fill="#7F8C8D" width="1.9" height="30.9"/>
<path fill="#E64D3C" d="M192.9,42.2c8.6,2.1,13.3,0.1,19.7-8c-4.9-6.9-8.6-9.3-15.6-10.3C192.6,29.6,191.6,33.9,192.9,42.2z"/>
<path fill="#EDF0F1" d="M182.2,46.6c5.5,0.8,8.1-0.8,10.7-4.3c-1.3-8.3-0.3-12.7,4-18.3C186.3,28.3,180,38.1,182.2,46.6z"/>
<path fill="#EDF0F1" d="M196.9,24c7,1,10.7,3.4,15.6,10.3c4.9,0.7,7.5-0.2,10.7-4.3C218.9,22.4,207.5,19.7,196.9,24z"/>
<circle fill="#FFFFFF" cx="196.9" cy="24" r="1"/>
<path fill="#FFFFFF" d="M106.1,186.8c-11.8-13.4-35.7-14.2-55.1-1.4c-19.4,12.8-28.1,35-20.4,51.2L106.1,186.8z"/>
<rect x="83.7" y="206.5" transform="matrix(0.8348 -0.5506 0.5506 0.8348 -116.8798 86.4768)" fill="#7F8C8D" width="3.9" height="63"/>
<path fill="#E64D3C" d="M50.2,223.6c18,0.9,26.6-5.1,36.1-23.8c-12.5-11.8-21-15.2-35.4-14.4C44.5,198.3,44.3,207.5,50.2,223.6z"/>
<path fill="#EDF0F1" d="M30.5,236.6c11.3-0.6,15.9-4.8,19.7-13c-6-16.1-5.7-25.3,0.7-38.2C31.5,198.2,22.9,220.5,30.5,236.6z"/>
<path fill="#EDF0F1" d="M51,185.4c14.4-0.9,22.9,2.6,35.4,14.4c10.2-0.6,14.9-3.3,19.7-13C94.3,173.4,70.4,172.6,51,185.4z"/>
<circle fill="#FFFFFF" cx="51" cy="185.4" r="2"/>
<path fill="#2D3F50" d="M258.3,421.5l-2.6-8.6l-7.5,4.9l3.1,1.1c-3.8,5.3-16.2,13.6-6.4-17.7l6.5,2.4c0.9,0.3,2-0.1,2.3-1.1
	c0.3-0.9-0.1-2-1.1-2.3l-6.7-2.4c0.4-1.2,0.9-2.5,1.3-3.9c1.2-0.2,2.3-1,2.7-2.3c0.7-1.9-0.3-3.9-2.1-4.6c-1.9-0.7-3.9,0.3-4.6,2.1
	c-0.5,1.2-0.2,2.6,0.6,3.5c-0.5,1.3-1,2.6-1.5,3.8l-6.7-2.4c-0.9-0.3-2,0.1-2.3,1.1c-0.3,0.9,0.1,2,1.1,2.3l6.6,2.4
	c-12.9,31.2-16.4,15.6-16.2,9.4l3,1.1l-2.6-8.6l-7.5,4.9l3.4,1.2c-4.7,13.6-1.2,14.9,11.9,19.7c13.2,4.8,16.6,6.1,21.8-7.4
	L258.3,421.5z"/>
<path fill="#2D3F50" d="M398.5,115.2l-6.5-8.7l-6.5,8.7h4c-2.1,7.6-12.7,22-14.5-17.3h8.4c1.2,0,2.2-1,2.2-2.2s-1-2.2-2.2-2.2h-8.5
	c0-1.6-0.1-3.2-0.1-4.9c1.3-0.8,2.1-2.1,2.1-3.7c0-2.4-1.9-4.3-4.3-4.3s-4.3,1.9-4.3,4.3c0,1.6,0.9,3,2.1,3.7c0,1.7,0,3.4-0.1,4.9
	h-8.5c-1.2,0-2.2,1-2.2,2.2s1,2.2,2.2,2.2h8.4c-1.7,40.6-12,24.4-14.4,17.3h3.8l-6.5-8.7l-6.5,8.7h4.3c0.3,17.3,4.8,17.3,21.6,17.3
	c16.8,0,21.3,0,21.6-17.3H398.5z"/>
<path fill="#2D3F50" d="M381.5,333.3l-2.9-1.5l-0.7,3.2l1.1-0.5c0.4,2.3-0.7,7.6-6.1-2.9l2.3-1.1c0.3-0.2,0.5-0.5,0.3-0.9
	c-0.2-0.3-0.5-0.5-0.9-0.3l-2.3,1.1c-0.2-0.4-0.4-0.9-0.7-1.3c0.3-0.4,0.3-0.8,0.1-1.3c-0.3-0.6-1.1-0.9-1.7-0.6
	c-0.6,0.3-0.9,1.1-0.6,1.7c0.2,0.4,0.6,0.7,1.1,0.7c0.2,0.5,0.4,0.9,0.6,1.4l-2.3,1.1c-0.3,0.2-0.5,0.5-0.3,0.9
	c0.2,0.3,0.5,0.5,0.9,0.3l2.3-1.1c4.7,11.3-0.2,8.1-1.7,6.5l1-0.5l-2.9-1.5l-0.7,3.2l1.2-0.5c2.3,4.7,3.5,4.1,8.1,2
	c4.6-2.1,5.8-2.7,3.7-7.4L381.5,333.3z"/>
<path fill="#2D3F50" d="M218.7,154.2l-14.7-8.1l-3.6,16.4l5.6-2.5c2,12.1-3.8,39.3-31.6-15.2l11.8-5.4c1.7-0.8,2.4-2.8,1.7-4.4
	c-0.8-1.7-2.8-2.4-4.4-1.7l-12.1,5.5c-1.1-2.2-2.2-4.5-3.3-6.9c1.3-1.9,1.7-4.4,0.6-6.6c-1.5-3.4-5.5-4.9-8.9-3.3
	c-3.4,1.5-4.9,5.5-3.3,8.9c1,2.2,3.1,3.6,5.4,3.9c1.1,2.4,2.1,4.8,3,7l-12.1,5.5c-1.7,0.8-2.4,2.8-1.7,4.4c0.8,1.7,2.8,2.4,4.4,1.7
	l11.9-5.4c23.5,58.5-1.4,42.2-9.3,33.7l5.4-2.5l-14.7-8.1l-3.6,16.4l6.1-2.8c11.5,24.3,17.8,21.4,41.7,10.6
	c23.8-10.8,30.1-13.7,19.5-38.3L218.7,154.2z"/>
<path fill="#2D3F50" d="M33.8,190.9l-3.2-4.6l-3.5,4.4l2.1,0.1c-1.2,3.9-7,11.2-7.2-9.3l4.3,0.2c0.6,0,1.1-0.5,1.2-1.1
	s-0.5-1.1-1.1-1.2l-4.4-0.2c0-0.8,0-1.7,0.1-2.6c0.7-0.4,1.2-1.1,1.2-1.9c0-1.2-0.9-2.3-2.2-2.3c-1.2,0-2.3,0.9-2.3,2.2
	c0,0.8,0.4,1.6,1,2c0,0.9-0.1,1.7-0.1,2.6l-4.4-0.2c-0.6,0-1.1,0.5-1.2,1.1s0.5,1.1,1.1,1.2l4.4,0.2c-1.8,21-6.8,12.4-7.8,8.7l2,0.1
	l-3.2-4.6l-3.5,4.4l2.3,0.1c-0.2,9,2.1,9.1,10.9,9.4c8.7,0.4,11,0.4,11.6-8.5L33.8,190.9z"/>
<path fill="#2D3F50" d="M306.9,240.4l-2.1-3l-2.3,2.9l1.4,0.1c-0.8,2.6-4.6,7.3-4.7-6.1l2.8,0.1c0.4,0,0.7-0.3,0.8-0.7
	c0-0.4-0.3-0.7-0.7-0.8l-2.9-0.1c0-0.5,0-1.1,0-1.7c0.4-0.2,0.8-0.7,0.8-1.2c0-0.8-0.6-1.5-1.4-1.5c-0.8,0-1.5,0.6-1.5,1.4
	c0,0.5,0.3,1,0.7,1.3c0,0.6-0.1,1.1-0.1,1.7l-2.9-0.1c-0.4,0-0.7,0.3-0.8,0.7s0.3,0.7,0.7,0.8l2.9,0.1c-1.1,13.8-4.4,8.1-5.1,5.7
	l1.3,0.1l-2.1-3l-2.3,2.9l1.5,0.1c-0.1,5.9,1.4,6,7.1,6.2c5.7,0.2,7.2,0.3,7.6-5.6L306.9,240.4z"/>
<path fill="#2D3F50" d="M303.1,330.6l-2.7-2.5l-1.7,3.3l1.3-0.2c-0.3,2.7-3,8.1-5.8-5l2.8-0.5c0.4-0.1,0.7-0.4,0.6-0.8
	c-0.1-0.4-0.4-0.7-0.8-0.6l-2.9,0.5c-0.1-0.5-0.2-1.1-0.3-1.7c0.4-0.3,0.6-0.8,0.5-1.4c-0.1-0.8-0.9-1.3-1.7-1.2
	c-0.8,0.1-1.3,0.9-1.2,1.7c0.1,0.5,0.5,0.9,0.9,1.1c0.1,0.6,0.2,1.1,0.2,1.7l-2.9,0.5c-0.4,0.1-0.7,0.4-0.6,0.8
	c0.1,0.4,0.4,0.7,0.8,0.6l2.8-0.5c1.6,13.7-2.7,8.8-3.9,6.6l1.3-0.2l-2.7-2.5l-1.7,3.3l1.5-0.2c1.1,5.8,2.5,5.6,8.2,4.6
	c5.7-0.9,7.2-1.2,6.3-7L303.1,330.6z"/>
<path fill="#2D3F50" d="M116.4,244.7l-2.7-2.5l-1.7,3.3l1.3-0.2c-0.3,2.7-3,8.1-5.8-5l2.8-0.5c0.4-0.1,0.7-0.4,0.6-0.8
	c-0.1-0.4-0.4-0.7-0.8-0.6l-2.9,0.5c-0.1-0.5-0.2-1.1-0.3-1.7c0.4-0.3,0.6-0.8,0.5-1.4c-0.1-0.8-0.9-1.3-1.7-1.2
	c-0.8,0.1-1.3,0.9-1.2,1.7c0.1,0.5,0.5,0.9,0.9,1.1c0.1,0.6,0.2,1.1,0.2,1.7l-2.9,0.5c-0.4,0.1-0.7,0.4-0.6,0.8
	c0.1,0.4,0.4,0.7,0.8,0.6l2.8-0.5c1.6,13.7-2.7,8.9-3.9,6.6l1.3-0.2l-2.7-2.5l-1.7,3.3l1.5-0.2c1.1,5.8,2.6,5.6,8.2,4.6
	c5.7-0.9,7.2-1.2,6.3-7L116.4,244.7z"/>
<path fill="#2D3F50" d="M193.8,81.9l-2.7-2.5l-1.7,3.3l1.3-0.2c-0.3,2.7-3,8.1-5.8-5l2.8-0.5c0.4-0.1,0.7-0.4,0.6-0.8
	c-0.1-0.4-0.4-0.7-0.8-0.6l-2.9,0.5c-0.1-0.5-0.2-1.1-0.3-1.7c0.4-0.3,0.6-0.8,0.5-1.4c-0.1-0.8-0.9-1.3-1.7-1.2
	c-0.8,0.1-1.3,0.9-1.2,1.7c0.1,0.5,0.5,0.9,0.9,1.1c0.1,0.6,0.2,1.1,0.2,1.7l-2.9,0.5c-0.4,0.1-0.7,0.4-0.6,0.8
	c0.1,0.4,0.4,0.7,0.8,0.6l2.8-0.5c1.6,13.7-2.7,8.9-3.9,6.6l1.3-0.2l-2.7-2.5l-1.7,3.3l1.5-0.2c1.1,5.8,2.6,5.6,8.2,4.6
	c5.7-0.9,7.2-1.2,6.3-7L193.8,81.9z"/>
<path fill="#2D3F50" d="M43,54.9l-1.4-1.4l-0.9,1.7l0.7-0.1c-0.1,1.4-1.6,4.3-3.1-2.7l1.5-0.2c0.2,0,0.4-0.2,0.3-0.4
	c0-0.2-0.2-0.4-0.4-0.3l-1.5,0.2c-0.1-0.3-0.1-0.6-0.2-0.9c0.2-0.2,0.3-0.4,0.3-0.7c-0.1-0.4-0.5-0.7-0.9-0.6
	c-0.4,0.1-0.7,0.5-0.6,0.9c0,0.3,0.2,0.5,0.5,0.6c0,0.3,0.1,0.6,0.1,0.9l-1.5,0.2c-0.2,0-0.4,0.2-0.3,0.4c0,0.2,0.2,0.4,0.4,0.3
	l1.5-0.2c0.9,7.3-1.4,4.7-2.1,3.5l0.7-0.1l-1.4-1.4l-0.9,1.7l0.8-0.1c0.6,3.1,1.4,2.9,4.4,2.5c3-0.5,3.8-0.6,3.3-3.7L43,54.9z"/>
<path fill="#2D3F50" d="M310.8,54.8l-1.4-1.4l-0.9,1.7l0.7-0.1c-0.1,1.4-1.6,4.3-3.1-2.7l1.5-0.2c0.2,0,0.4-0.2,0.3-0.4
	c0-0.2-0.2-0.4-0.4-0.3l-1.5,0.2c-0.1-0.3-0.1-0.6-0.2-0.9c0.2-0.2,0.3-0.4,0.3-0.7c-0.1-0.4-0.5-0.7-0.9-0.6
	c-0.4,0.1-0.7,0.5-0.6,0.9c0,0.3,0.2,0.5,0.5,0.6c0,0.3,0.1,0.6,0.1,0.9l-1.5,0.2c-0.2,0-0.4,0.2-0.3,0.4c0,0.2,0.2,0.4,0.4,0.3
	l1.5-0.2c0.9,7.3-1.4,4.7-2.1,3.5l0.7-0.1l-1.4-1.4l-0.9,1.7l0.8-0.1c0.6,3.1,1.4,2.9,4.4,2.5c3-0.5,3.8-0.6,3.3-3.7L310.8,54.8z"/>
<path fill="#2D3F50" d="M483.9,192.2l-0.1-2.5l-2.4,0.8l0.8,0.5c-1.4,1.2-5.3,2.5-0.5-5.2l1.6,1.1c0.2,0.2,0.5,0.1,0.7-0.1
	c0.2-0.2,0.1-0.5-0.1-0.7l-1.6-1.1c0.2-0.3,0.4-0.6,0.6-1c0.3,0,0.7-0.1,0.9-0.4c0.3-0.5,0.2-1.1-0.3-1.4c-0.5-0.3-1.1-0.2-1.4,0.3
	c-0.2,0.3-0.2,0.7-0.1,1c-0.2,0.3-0.4,0.6-0.7,0.9l-1.6-1.1c-0.2-0.2-0.5-0.1-0.7,0.1c-0.2,0.2-0.1,0.5,0.1,0.7l1.6,1.1
	c-5.6,7.5-5.5,3.1-5,1.4l0.7,0.5l-0.1-2.5l-2.4,0.8l0.8,0.6c-2.2,3.3-1.3,3.9,1.9,6.1c3.2,2.2,4,2.8,6.4-0.5L483.9,192.2z"/>
<path fill="#2D3F50" d="M76.5,115.2l-4-5.7l-4.4,5.4l2.6,0.1c-1.5,4.8-8.7,13.8-8.9-11.5l5.4,0.2c0.8,0,1.4-0.6,1.4-1.3
	s-0.6-1.4-1.3-1.4l-5.5-0.2c0-1,0-2.1,0.1-3.2c0.8-0.4,1.4-1.3,1.5-2.3c0.1-1.5-1.1-2.8-2.7-2.9c-1.5-0.1-2.8,1.1-2.9,2.7
	c0,1,0.5,1.9,1.3,2.4c-0.1,1.1-0.1,2.2-0.2,3.2l-5.5-0.2c-0.8,0-1.4,0.6-1.4,1.3c0,0.8,0.6,1.4,1.3,1.4l5.4,0.2
	c-2.2,26.1-8.4,15.4-9.7,10.8l2.5,0.1l-3.9-5.7l-4.4,5.4L46,114c-0.2,11.1,2.6,11.2,13.4,11.7c10.8,0.4,13.7,0.5,14.3-10.6
	L76.5,115.2z"/>
<path fill="#2D3F50" d="M405.7,213.2l-2.1-3l-2.3,2.9l1.4,0.1c-0.8,2.6-4.6,7.3-4.7-6.1l2.8,0.1c0.4,0,0.7-0.3,0.8-0.7
	c0-0.4-0.3-0.8-0.7-0.8l-2.9-0.1c0-0.5,0-1.1,0-1.7c0.4-0.2,0.8-0.7,0.8-1.2c0-0.8-0.6-1.5-1.4-1.5c-0.8,0-1.5,0.6-1.5,1.4
	c0,0.5,0.3,1,0.7,1.3c0,0.6-0.1,1.1-0.1,1.7l-2.9-0.1c-0.4,0-0.7,0.3-0.8,0.7c0,0.4,0.3,0.7,0.7,0.8l2.9,0.1
	c-1.2,13.8-4.4,8.1-5.1,5.7l1.3,0.1l-2.1-3l-2.3,2.9l1.5,0.1c-0.1,5.9,1.4,6,7.1,6.2c5.7,0.2,7.2,0.3,7.6-5.6L405.7,213.2z"/>
<path fill="#2D3F50" d="M253.1,116.3l-2.1-3l-2.3,2.9l1.4,0.1c-0.8,2.6-4.6,7.3-4.7-6.1l2.8,0.1c0.4,0,0.7-0.3,0.8-0.7
	c0-0.4-0.3-0.7-0.7-0.8l-2.9-0.1c0-0.5,0-1.1,0-1.7c0.4-0.2,0.8-0.7,0.8-1.2c0-0.8-0.6-1.5-1.4-1.5c-0.8,0-1.5,0.6-1.5,1.4
	c0,0.5,0.3,1,0.7,1.3c0,0.6-0.1,1.1-0.1,1.7l-2.9-0.1c-0.4,0-0.7,0.3-0.8,0.7s0.3,0.7,0.7,0.8l2.9,0.1c-1.1,13.8-4.4,8.1-5.1,5.7
	l1.3,0.1l-2.1-3l-2.3,2.9l1.5,0.1c-0.1,5.9,1.4,6,7.1,6.2c5.7,0.2,7.2,0.3,7.6-5.6L253.1,116.3z"/>
<path fill="#2D3F50" d="M117.4,172.6l-2.1-3l-2.3,2.9l1.4,0.1c-0.8,2.6-4.6,7.3-4.7-6.1l2.8,0.1c0.4,0,0.7-0.3,0.8-0.7
	c0-0.4-0.3-0.7-0.7-0.8l-2.9-0.1c0-0.5,0-1.1,0-1.7c0.4-0.2,0.8-0.7,0.8-1.2c0-0.8-0.6-1.5-1.4-1.5c-0.8,0-1.5,0.6-1.5,1.4
	c0,0.5,0.3,1,0.7,1.3c0,0.6-0.1,1.1-0.1,1.7l-2.9-0.1c-0.4,0-0.7,0.3-0.8,0.7s0.3,0.7,0.7,0.8l2.9,0.1c-1.1,13.8-4.4,8.1-5.1,5.7
	l1.3,0.1l-2.1-3l-2.3,2.9l1.5,0.1c-0.1,5.9,1.4,6,7.1,6.2c5.7,0.2,7.2,0.3,7.6-5.6L117.4,172.6z"/>
<path fill="#7F8C8D" d="M149.1,316.2c0.3,1.1-0.2,2.2-1.3,2.5l-42.1,13.4c-1.1,0.3-2.2-0.2-2.5-1.3l-7.3-22.9
	c-0.3-1.1,0.2-2.2,1.3-2.5l42.1-13.4c1.1-0.3,2.2,0.2,2.5,1.3L149.1,316.2z"/>
<circle fill="#BDC3C7" cx="130.1" cy="309.6" r="12"/>
<circle fill="#EDF0F1" cx="130.1" cy="309.6" r="10.3"/>
<circle fill="#7F8C8D" cx="130.1" cy="309.6" r="8.6"/>
<circle fill="#EDF0F1" cx="115" cy="305" r="1"/>
<path fill="#7F8C8D" d="M104.8,302.9l-0.3-1c-0.2-0.5-0.7-0.8-1.3-0.7l-3.8,1.2c-0.5,0.2-0.8,0.7-0.7,1.3l0.3,1L104.8,302.9z"/>
<path fill="#7F8C8D" d="M133.5,293.8l-0.9-2.9c-0.2-0.5-0.8-0.8-1.4-0.6l-11.2,3.6c-0.6,0.2-1,0.8-0.8,1.3l0.9,2.9L133.5,293.8z"/>
<path fill="#BDC3C7" d="M107.7,305.2c0.2,0.5-0.1,1.1-0.5,1.2l-8,2.5c-0.4,0.1-0.9-0.2-1.1-0.7l0,0c-0.2-0.5,0.1-1.1,0.5-1.2l8-2.5
	C107,304.3,107.5,304.7,107.7,305.2L107.7,305.2z"/>
<path fill="#7F8C8D" d="M435.8,68.3c-0.6,1.1-2.1,1.6-3.2,0.9l-45.4-25.1c-1.1-0.6-1.6-2.1-0.9-3.2l13.7-24.8
	c0.6-1.1,2.1-1.6,3.2-0.9l45.4,25.1c1.1,0.6,1.6,2.1,0.9,3.2L435.8,68.3z"/>
<circle fill="#BDC3C7" cx="426.1" cy="46.8" r="14.1"/>
<circle fill="#EDF0F1" cx="426.1" cy="46.8" r="12.1"/>
<circle fill="#7F8C8D" cx="426.1" cy="46.8" r="10.1"/>
<circle fill="#EDF0F1" cx="417.8" cy="30.1" r="1.2"/>
<path fill="#7F8C8D" d="M411.4,19.8l0.6-1c0.3-0.6,0.1-1.3-0.5-1.6l-4.1-2.3c-0.6-0.3-1.3-0.1-1.6,0.5l-0.6,1L411.4,19.8z"/>
<path fill="#7F8C8D" d="M442.3,36.9l1.7-3.1c0.3-0.6,0-1.3-0.6-1.7l-12-6.7c-0.7-0.4-1.5-0.2-1.8,0.4l-1.7,3.1L442.3,36.9z"/>
<path fill="#BDC3C7" d="M411.7,24.1c-0.3,0.6-1,0.8-1.4,0.6l-8.6-4.8c-0.5-0.3-0.6-0.9-0.3-1.5l0,0c0.3-0.6,1-0.8,1.4-0.6l8.6,4.8
	C411.9,22.8,412.1,23.5,411.7,24.1L411.7,24.1z"/>
<path fill="#7F8C8D" d="M393.3,191.9c-0.3,1.8-2.1,3-3.9,2.7l-71.6-13.2c-1.8-0.3-3-2.1-2.7-3.9l7.2-39.1c0.3-1.8,2.1-3,3.9-2.7
	l71.6,13.2c1.8,0.3,3,2.1,2.7,3.9L393.3,191.9z"/>
<circle fill="#BDC3C7" cx="370.8" cy="167.5" r="19.9"/>
<circle fill="#EDF0F1" cx="370.8" cy="167.5" r="17"/>
<circle fill="#7F8C8D" cx="370.8" cy="167.5" r="14.2"/>
<circle fill="#EDF0F1" cx="352.4" cy="149" r="1.7"/>
<path fill="#7F8C8D" d="M339.2,138.2l0.3-1.6c0.2-0.9-0.4-1.8-1.3-1.9l-6.5-1.2c-0.9-0.2-1.8,0.4-1.9,1.3l-0.3,1.6L339.2,138.2z"/>
<path fill="#7F8C8D" d="M388,147.1l0.9-4.9c0.2-0.9-0.5-1.8-1.6-2l-19-3.5c-1-0.2-2,0.4-2.2,1.3l-0.9,4.9L388,147.1z"/>
<path fill="#BDC3C7" d="M341.6,143.7c-0.2,0.9-0.9,1.5-1.7,1.4l-13.6-2.5c-0.8-0.1-1.2-1-1.1-1.9l0,0c0.2-0.9,0.9-1.5,1.7-1.4
	l13.6,2.5C341.3,141.9,341.7,142.8,341.6,143.7L341.6,143.7z"/>
<path fill="#7F8C8D" d="M99.3,160c0.3,1.3-0.5,2.7-1.8,3l-53,12.4c-1.3,0.3-2.7-0.5-3-1.8l-6.8-28.9c-0.3-1.3,0.5-2.7,1.8-3l53-12.4
	c1.3-0.3,2.7,0.5,3,1.8L99.3,160z"/>
<circle fill="#BDC3C7" cx="76.6" cy="150" r="14.9"/>
<circle fill="#EDF0F1" cx="76.6" cy="150" r="12.7"/>
<circle fill="#7F8C8D" cx="76.6" cy="150" r="10.6"/>
<circle fill="#EDF0F1" cx="58.4" cy="142.9" r="1.2"/>
<path fill="#7F8C8D" d="M46.2,139.4l-0.3-1.2c-0.2-0.7-0.8-1.1-1.5-0.9l-4.8,1.1c-0.7,0.2-1.1,0.8-0.9,1.5l0.3,1.2L46.2,139.4z"/>
<path fill="#7F8C8D" d="M82.3,130.9l-0.8-3.6c-0.2-0.7-0.9-1.1-1.7-0.9l-14.1,3.3c-0.8,0.2-1.3,0.9-1.1,1.5l0.8,3.6L82.3,130.9z"/>
<path fill="#BDC3C7" d="M49.4,142.4c0.2,0.7-0.2,1.3-0.7,1.4l-10,2.4c-0.6,0.1-1.1-0.3-1.3-1l0,0c-0.2-0.7,0.2-1.3,0.7-1.4l10-2.4
	C48.7,141.3,49.3,141.8,49.4,142.4L49.4,142.4z"/>
<path fill="#7F8C8D" d="M457.9,113.1c0.1,0.3-0.1,0.6-0.4,0.7l-12.9,3c-0.3,0.1-0.6-0.1-0.7-0.4l-1.7-7c-0.1-0.3,0.1-0.6,0.4-0.7
	l12.9-3c0.3-0.1,0.6,0.1,0.7,0.4L457.9,113.1z"/>
<circle fill="#BDC3C7" cx="452.4" cy="110.6" r="3.6"/>
<circle fill="#EDF0F1" cx="452.4" cy="110.6" r="3.1"/>
<circle fill="#7F8C8D" cx="452.4" cy="110.6" r="2.6"/>
<circle fill="#EDF0F1" cx="448" cy="108.9" r="0.3"/>
<path fill="#7F8C8D" d="M445,108l-0.1-0.3c0-0.2-0.2-0.3-0.4-0.2l-1.2,0.3c-0.2,0-0.3,0.2-0.2,0.4l0.1,0.3L445,108z"/>
<path fill="#7F8C8D" d="M453.8,106l-0.2-0.9c0-0.2-0.2-0.3-0.4-0.2l-3.4,0.8c-0.2,0-0.3,0.2-0.3,0.4l0.2,0.9L453.8,106z"/>
<path fill="#BDC3C7" d="M445.8,108.8c0,0.2,0,0.3-0.2,0.4l-2.4,0.6c-0.1,0-0.3-0.1-0.3-0.2l0,0c0-0.2,0-0.3,0.2-0.4l2.4-0.6
	C445.6,108.5,445.8,108.6,445.8,108.8L445.8,108.8z"/>
<path fill="#7F8C8D" d="M399.9,256.5c0,0.3-0.3,0.6-0.6,0.6l-13.2-0.7c-0.3,0-0.6-0.3-0.6-0.6l0.4-7.2c0-0.3,0.3-0.6,0.6-0.6
	l13.2,0.7c0.3,0,0.6,0.3,0.6,0.6L399.9,256.5z"/>
<circle fill="#BDC3C7" cx="395.3" cy="252.6" r="3.6"/>
<circle fill="#EDF0F1" cx="395.3" cy="252.6" r="3.1"/>
<circle fill="#7F8C8D" cx="395.3" cy="252.6" r="2.6"/>
<circle fill="#EDF0F1" cx="391.5" cy="249.7" r="0.3"/>
<path fill="#7F8C8D" d="M388.9,248.1l0-0.3c0-0.2-0.1-0.3-0.3-0.3l-1.2-0.1c-0.2,0-0.3,0.1-0.3,0.3l0,0.3L388.9,248.1z"/>
<path fill="#7F8C8D" d="M397.9,248.5l0-0.9c0-0.2-0.1-0.3-0.3-0.3l-3.5-0.2c-0.2,0-0.4,0.1-0.4,0.3l0,0.9L397.9,248.5z"/>
<path fill="#BDC3C7" d="M389.4,249c0,0.2-0.1,0.3-0.3,0.3l-2.5-0.1c-0.1,0-0.2-0.1-0.2-0.3l0,0c0-0.2,0.1-0.3,0.3-0.3l2.5,0.1
	C389.3,248.7,389.4,248.8,389.4,249L389.4,249z"/>
<path fill="#7F8C8D" d="M171,113.9c0.1,0.3-0.1,0.6-0.4,0.7l-12.9,3c-0.3,0.1-0.6-0.1-0.7-0.4l-1.7-7c-0.1-0.3,0.1-0.6,0.4-0.7
	l12.9-3c0.3-0.1,0.6,0.1,0.7,0.4L171,113.9z"/>
<circle fill="#BDC3C7" cx="165.5" cy="111.5" r="3.6"/>
<circle fill="#EDF0F1" cx="165.5" cy="111.5" r="3.1"/>
<circle fill="#7F8C8D" cx="165.5" cy="111.5" r="2.6"/>
<circle fill="#EDF0F1" cx="161" cy="109.8" r="0.3"/>
<path fill="#7F8C8D" d="M158,108.9l-0.1-0.3c0-0.2-0.2-0.3-0.4-0.2l-1.2,0.3c-0.2,0-0.3,0.2-0.2,0.4l0.1,0.3L158,108.9z"/>
<path fill="#7F8C8D" d="M166.8,106.9l-0.2-0.9c0-0.2-0.2-0.3-0.4-0.2l-3.4,0.8c-0.2,0-0.3,0.2-0.3,0.4l0.2,0.9L166.8,106.9z"/>
<path fill="#BDC3C7" d="M158.8,109.7c0,0.2,0,0.3-0.2,0.4l-2.4,0.6c-0.1,0-0.3-0.1-0.3-0.2l0,0c0-0.2,0-0.3,0.2-0.4l2.4-0.6
	C158.6,109.4,158.8,109.5,158.8,109.7L158.8,109.7z"/>
<path fill="#7F8C8D" d="M194.6,212.6c0,0.3-0.3,0.6-0.6,0.6l-13.3-0.2c-0.3,0-0.6-0.3-0.6-0.6l0.1-7.2c0-0.3,0.3-0.6,0.6-0.6
	l13.3,0.2c0.3,0,0.6,0.3,0.6,0.6L194.6,212.6z"/>
<circle fill="#BDC3C7" cx="189.8" cy="208.9" r="3.6"/>
<circle fill="#EDF0F1" cx="189.8" cy="208.9" r="3.1"/>
<circle fill="#7F8C8D" cx="189.8" cy="208.9" r="2.6"/>
<circle fill="#EDF0F1" cx="186" cy="206.1" r="0.3"/>
<path fill="#7F8C8D" d="M183.3,204.6l0-0.3c0-0.2-0.1-0.3-0.3-0.3l-1.2,0c-0.2,0-0.3,0.1-0.3,0.3l0,0.3L183.3,204.6z"/>
<path fill="#7F8C8D" d="M192.3,204.7l0-0.9c0-0.2-0.2-0.3-0.3-0.3l-3.5-0.1c-0.2,0-0.4,0.1-0.4,0.3l0,0.9L192.3,204.7z"/>
<path fill="#BDC3C7" d="M183.9,205.5c0,0.2-0.1,0.3-0.3,0.3l-2.5,0c-0.1,0-0.2-0.1-0.2-0.3l0,0c0-0.2,0.1-0.3,0.3-0.3l2.5,0
	C183.7,205.2,183.9,205.3,183.9,205.5L183.9,205.5z"/>
</svg>
